<svg width="52" height="52" viewBox="0 0 52 52" fill="none" xmlns="http://www.w3.org/2000/svg">
<g clip-path="url(#clip0)">
<path d="M28.3359 36.9688C28.3359 39.2088 30.1584 41.0312 32.3984 41.0312H37.1719C39.4119 41.0312 41.2344 39.2088 41.2344 36.9688V32.1953C41.2344 29.9553 39.4119 28.1328 37.1719 28.1328H32.3984C30.1584 28.1328 28.3359 29.9553 28.3359 32.1953V36.9688ZM32.3984 32.1953H37.1719L37.1744 36.9686C37.1744 36.9686 37.1737 36.9688 37.1719 36.9688H32.3984V32.1953Z" fill="#F6F7EB"/>
<path d="M39.2031 23.3594C40.325 23.3594 41.2344 22.45 41.2344 21.3281C41.2344 20.2063 40.325 19.2969 39.2031 19.2969C38.0813 19.2969 37.1719 20.2063 37.1719 21.3281C37.1719 22.45 38.0813 23.3594 39.2031 23.3594Z" fill="#F6F7EB"/>
<path d="M30.3672 23.3594C31.489 23.3594 32.3984 22.45 32.3984 21.3281C32.3984 20.2063 31.489 19.2969 30.3672 19.2969C29.2454 19.2969 28.3359 20.2063 28.3359 21.3281C28.3359 22.45 29.2454 23.3594 30.3672 23.3594Z" fill="#F6F7EB"/>
<path d="M49.939 35.75C51.0608 35.75 51.9702 34.8406 51.9702 33.7188V12.1875C51.9702 7.70738 48.3253 4.0625 43.8452 4.0625H41.2046V2.03125C41.2046 0.909391 40.2952 0 39.1733 0C38.0515 0 37.1421 0.909391 37.1421 2.03125V4.0625H27.8999V2.03125C27.8999 0.909391 26.9905 0 25.8687 0C24.7468 0 23.8374 0.909391 23.8374 2.03125V4.0625H14.6968V2.03125C14.6968 0.909391 13.7874 0 12.6655 0C11.5437 0 10.6343 0.909391 10.6343 2.03125V4.0625H8.09521C3.61509 4.0625 -0.0297852 7.70738 -0.0297852 12.1875V43.875C-0.0297852 48.3551 3.61509 52 8.09521 52H43.8452C48.3253 52 51.9702 48.3551 51.9702 43.875C51.9702 42.7531 51.0608 41.8438 49.939 41.8438C48.8171 41.8438 47.9077 42.7531 47.9077 43.875C47.9077 46.1151 46.0853 47.9375 43.8452 47.9375H8.09521C5.85515 47.9375 4.03271 46.1151 4.03271 43.875V12.1875C4.03271 9.94744 5.85515 8.125 8.09521 8.125H10.6343V10.1562C10.6343 11.2781 11.5437 12.1875 12.6655 12.1875C13.7874 12.1875 14.6968 11.2781 14.6968 10.1562V8.125H23.8374V10.1562C23.8374 11.2781 24.7468 12.1875 25.8687 12.1875C26.9905 12.1875 27.8999 11.2781 27.8999 10.1562V8.125H37.1421V10.1562C37.1421 11.2781 38.0515 12.1875 39.1733 12.1875C40.2952 12.1875 41.2046 11.2781 41.2046 10.1562V8.125H43.8452C46.0853 8.125 47.9077 9.94744 47.9077 12.1875V33.7188C47.9077 34.8406 48.8171 35.75 49.939 35.75Z" fill="#F6F7EB"/>
<path d="M12.6953 41.0312C13.8171 41.0312 14.7266 40.1218 14.7266 39C14.7266 37.8782 13.8171 36.9688 12.6953 36.9688C11.5735 36.9688 10.6641 37.8782 10.6641 39C10.6641 40.1218 11.5735 41.0312 12.6953 41.0312Z" fill="#F6F7EB"/>
<path d="M12.6953 23.3594C13.8171 23.3594 14.7266 22.45 14.7266 21.3281C14.7266 20.2063 13.8171 19.2969 12.6953 19.2969C11.5735 19.2969 10.6641 20.2063 10.6641 21.3281C10.6641 22.45 11.5735 23.3594 12.6953 23.3594Z" fill="#F6F7EB"/>
<path d="M12.6953 32.1953C13.8171 32.1953 14.7266 31.2859 14.7266 30.1641C14.7266 29.0422 13.8171 28.1328 12.6953 28.1328C11.5735 28.1328 10.6641 29.0422 10.6641 30.1641C10.6641 31.2859 11.5735 32.1953 12.6953 32.1953Z" fill="#F6F7EB"/>
<path d="M21.5312 32.1953C22.6531 32.1953 23.5625 31.2859 23.5625 30.1641C23.5625 29.0422 22.6531 28.1328 21.5312 28.1328C20.4094 28.1328 19.5 29.0422 19.5 30.1641C19.5 31.2859 20.4094 32.1953 21.5312 32.1953Z" fill="#F6F7EB"/>
<path d="M21.5312 23.3594C22.6531 23.3594 23.5625 22.45 23.5625 21.3281C23.5625 20.2063 22.6531 19.2969 21.5312 19.2969C20.4094 19.2969 19.5 20.2063 19.5 21.3281C19.5 22.45 20.4094 23.3594 21.5312 23.3594Z" fill="#F6F7EB"/>
<path d="M21.5312 41.0312C22.6531 41.0312 23.5625 40.1218 23.5625 39C23.5625 37.8782 22.6531 36.9688 21.5312 36.9688C20.4094 36.9688 19.5 37.8782 19.5 39C19.5 40.1218 20.4094 41.0312 21.5312 41.0312Z" fill="#F6F7EB"/>
<rect x="47.9702" y="33" width="4" height="11" fill="#F6F7EB"/>
</g>
<defs>
<clipPath id="clip0">
<rect width="52" height="52" fill="white"/>
</clipPath>
</defs>
</svg>
