<svg width="52" height="52" viewBox="0 0 52 52" fill="none" xmlns="http://www.w3.org/2000/svg">
<g clip-path="url(#clip0)">
<path d="M47.0563 4.94447C40.4639 -1.64816 29.737 -1.64816 23.1445 4.94447C18.8113 9.27773 17.237 15.5215 18.7704 21.2746L0.496297 39.5487C0.179219 39.8658 0.000976562 40.2958 0.000976562 40.7442V50.3091C0.000976562 51.2428 0.758024 51.9999 1.69179 51.9999H11.2566C11.705 51.9999 12.1351 51.8217 12.4521 51.5046L14.8433 49.1134C15.1604 48.7963 15.3385 48.3663 15.3385 47.9179V44.8263H18.4301C18.8785 44.8263 19.3085 44.6482 19.6256 44.3311L22.0169 41.9398C22.334 41.6227 22.5121 41.1927 22.5121 40.7443V37.6528H25.6037C26.0521 37.6528 26.4821 37.4745 26.7992 37.1574L30.726 33.2306C36.4797 34.7642 42.7228 33.1897 47.0561 28.8565C53.6489 22.2641 53.6489 11.5372 47.0563 4.94447ZM44.6654 26.4653C41.0136 30.117 35.6938 31.3634 30.7816 29.7179C30.1735 29.5141 29.5024 29.672 29.049 30.1255L24.9036 34.2708H20.8216C19.8878 34.2708 19.1308 35.0279 19.1308 35.9617V40.0437L17.7299 41.4445H13.6479C12.7142 41.4445 11.9571 42.2015 11.9571 43.1353V47.2173L10.5565 48.6182H3.3827V41.4446L21.8753 22.952C22.3288 22.4985 22.4867 21.8275 22.283 21.2193C20.6376 16.3072 21.8839 10.9873 25.5356 7.33555C30.8098 2.06162 39.3912 2.06152 44.6654 7.33555C49.9394 12.6097 49.9394 21.1913 44.6654 26.4653Z" fill="#F6F7EB"/>
<path d="M42.2734 9.7269C39.6363 7.08973 35.3455 7.08973 32.7085 9.7269C30.0714 12.364 30.0714 16.6546 32.7085 19.2918C35.3455 21.9288 39.6362 21.9289 42.2734 19.2918C44.9104 16.6548 44.9104 12.3641 42.2734 9.7269ZM39.8822 16.9005C38.5637 18.2188 36.4183 18.2188 35.0997 16.9005C33.7812 15.582 33.7812 13.4366 35.0997 12.118C36.4182 10.7996 38.5636 10.7995 39.8822 12.118C41.2007 13.4366 41.2007 15.582 39.8822 16.9005Z" fill="#F6F7EB"/>
</g>
<defs>
<clipPath id="clip0">
<rect width="52" height="52" fill="white"/>
</clipPath>
</defs>
</svg>
