<svg width="58" height="53" viewBox="0 0 58 53" fill="none" xmlns="http://www.w3.org/2000/svg">
<path d="M56.0476 17.5351C55.2351 16.8575 54.235 16.4207 53.1552 16.2719L39.9343 14.4502L34.0219 3.08979C33.5389 2.16194 32.7917 1.39475 31.8611 0.871456C30.9978 0.386065 30.0084 0.129395 28.9998 0.129395C27.9912 0.129395 27.0018 0.385974 26.1385 0.871456C25.2079 1.39475 24.4608 2.16184 23.9779 3.08979L18.0654 14.4503L4.84462 16.2719C3.76473 16.4207 2.7645 16.8575 1.9521 17.5351C1.19846 18.1636 0.635446 18.9766 0.323741 19.8863C0.0121325 20.7959 -0.0363185 21.7675 0.183686 22.6961C0.420932 23.697 0.959383 24.6079 1.74086 25.3302L11.3075 34.1731L9.04907 46.6593C8.76924 48.2066 9.2184 49.7797 10.2814 50.9754C11.3524 52.18 12.9149 52.8709 14.5684 52.8709C15.469 52.8709 16.3703 52.6589 17.1749 52.2577L28.9999 46.3625L40.8249 52.2577C41.6295 52.6589 42.5307 52.8709 43.4313 52.8709C45.0848 52.8709 46.6473 52.18 47.7184 50.9754C48.7814 49.7797 49.2306 48.2067 48.9507 46.6593L46.6924 34.1731L56.259 25.3302C57.0404 24.6078 57.5789 23.697 57.8161 22.6961C58.0362 21.7675 57.9878 20.7959 57.6762 19.8863C57.3644 18.9767 56.8013 18.1637 56.0476 17.5351ZM53.3785 22.5281L42.8133 32.2942C42.4659 32.6152 42.3074 33.0778 42.3894 33.5311L44.8836 47.3209C45.0469 48.2243 44.29 48.9579 43.4313 48.9579C43.2046 48.9579 42.971 48.9067 42.7453 48.7942L29.6858 42.2836C29.4711 42.1766 29.2355 42.123 29 42.123C28.7645 42.123 28.5289 42.1766 28.3142 42.2836L15.2547 48.7942C15.0291 48.9067 14.7952 48.9579 14.5686 48.9579C13.7098 48.9579 12.953 48.2243 13.1164 47.3209L15.6105 33.5311C15.6925 33.0778 15.534 32.6152 15.1866 32.2942L4.62114 22.5281C3.74642 21.7196 4.2291 20.3109 5.43788 20.1443L20.0389 18.1324C20.5189 18.0663 20.9338 17.7804 21.1485 17.3679L27.6783 4.82154C27.9486 4.30217 28.4743 4.04248 28.9999 4.04248C29.5256 4.04248 30.0512 4.30226 30.3214 4.82154L36.8512 17.3679C37.0659 17.7803 37.4808 18.0663 37.9608 18.1324L52.5617 20.1443C53.7706 20.3109 54.2532 21.7196 53.3785 22.5281Z" fill="#F6F7EB"/>
<path d="M43.4313 52.9165C42.523 52.9165 41.614 52.7027 40.8026 52.2981L29 46.414L17.1974 52.2981C16.3859 52.7028 15.4769 52.9166 14.5685 52.9166C12.9008 52.9166 11.3248 52.2199 10.2447 51.0049C9.17247 49.7989 8.71946 48.2122 9.00169 46.6517L11.2558 34.1892L1.70726 25.363C0.919138 24.6345 0.376159 23.7158 0.136794 22.7062C-0.0851368 21.7696 -0.0363005 20.7897 0.278005 19.8723C0.592407 18.955 1.16033 18.1349 1.92043 17.501C2.73986 16.8176 3.74875 16.377 4.83789 16.2269L18.0336 14.4087L23.9349 3.06977C24.422 2.13388 25.1756 1.36021 26.1142 0.832349C26.985 0.342756 27.9828 0.0839844 29.0001 0.0839844C30.0173 0.0839844 31.0152 0.342756 31.886 0.832349C32.8246 1.36012 33.5782 2.13388 34.0653 3.06977L39.9666 14.4087L53.1624 16.2269C54.2515 16.3769 55.2602 16.8175 56.0797 17.501C56.8399 18.1349 57.4078 18.955 57.7221 19.8724C58.0365 20.7898 58.0854 21.7698 57.8633 22.7063C57.6241 23.7159 57.081 24.6345 56.2928 25.3631L46.7443 34.1892L48.9983 46.6517C49.2806 48.2122 48.8276 49.7989 47.7553 51.0049C46.675 52.2198 45.0989 52.9165 43.4313 52.9165ZM28.9999 46.311L29.0224 46.3221L40.8473 52.2173C41.645 52.615 42.5386 52.8252 43.4312 52.8252C45.0704 52.8252 46.6196 52.1402 47.6815 50.946C48.7353 49.7606 49.1806 48.201 48.9032 46.6671L46.6406 34.1571L56.2254 25.2975C57.0001 24.5813 57.5339 23.6783 57.769 22.6861C57.9873 21.7656 57.9393 20.8023 57.6303 19.9004C57.3213 18.9986 56.7631 18.1925 56.0159 17.5694C55.2105 16.8977 54.2189 16.4646 53.1483 16.3172L39.9024 14.4921L39.8912 14.4705L33.9788 3.10996C33.5 2.18996 32.7593 1.42954 31.8368 0.91072C30.9808 0.42944 30 0.175052 29 0.175052C28.0001 0.175052 27.0191 0.42944 26.1633 0.91072C25.2408 1.42945 24.5 2.18996 24.0212 3.10996L18.0975 14.4919L18.0724 14.4954L4.85167 16.3171C3.78112 16.4646 2.78946 16.8976 1.984 17.5693C1.23691 18.1924 0.678617 18.9984 0.369609 19.9003C0.0606015 20.8022 0.0126321 21.7654 0.230806 22.686C0.46603 23.6783 0.999858 24.5813 1.77459 25.2975L11.3593 34.1571L11.3551 34.1808L9.09667 46.6671C8.81925 48.201 9.26456 49.7606 10.3184 50.946C11.3802 52.1402 12.9293 52.8252 14.5686 52.8252C15.4614 52.8252 16.3549 52.6149 17.1526 52.2173L28.9999 46.311ZM43.4313 49.0034C43.186 49.0034 42.9476 48.9466 42.7229 48.8345L29.6635 42.3239C29.2561 42.1206 28.7444 42.1206 28.3366 42.3239L15.2772 48.8345C15.0525 48.9466 14.8141 49.0034 14.5687 49.0034C14.1202 49.0034 13.6941 48.8136 13.3998 48.4826C13.1091 48.1558 12.9917 47.7405 13.069 47.3131L15.5631 33.5233C15.6425 33.0847 15.4891 32.6374 15.153 32.3268L4.58764 22.5608C4.16979 22.1746 4.02222 21.6077 4.20254 21.0814C4.38286 20.5551 4.85359 20.1788 5.43115 20.0992L20.0321 18.0873C20.4965 18.0233 20.8978 17.7468 21.1055 17.3478L27.6353 4.80143C27.8935 4.30517 28.4164 3.99689 29 3.99689C29.5835 3.99689 30.1065 4.30517 30.3646 4.80143L36.8944 17.3478C37.1021 17.7469 37.5034 18.0234 37.9679 18.0873L52.5688 20.0992C53.1463 20.1788 53.6172 20.5552 53.7975 21.0815C53.9778 21.6077 53.8302 22.1746 53.4123 22.5608L42.8469 32.3269C42.5108 32.6374 42.3576 33.0847 42.4369 33.5234L44.9311 47.3132C45.0083 47.7405 44.8908 48.1558 44.6002 48.4826C44.3059 48.8136 43.8799 49.0034 43.4313 49.0034ZM28.9999 42.0773C29.2457 42.0773 29.4907 42.1346 29.7082 42.243L42.7676 48.7536C42.9785 48.8587 43.2017 48.912 43.4313 48.912C43.8514 48.912 44.2507 48.734 44.5266 48.4235C44.7986 48.1176 44.9085 47.7288 44.8361 47.3285L42.342 33.5387C42.2573 33.0704 42.4208 32.5929 42.7798 32.2613L53.3451 22.4953C53.7364 22.1335 53.8746 21.6025 53.7058 21.1096C53.5368 20.6166 53.0959 20.2641 52.5548 20.1894L37.9539 18.1775C37.4582 18.1092 37.0298 17.8141 36.808 17.3881L30.2782 4.84171C30.0363 4.37687 29.5465 4.08814 28.9999 4.08814C28.4533 4.08814 27.9635 4.37687 27.7216 4.84171L21.1918 17.3881C20.9701 17.8141 20.5417 18.1093 20.0459 18.1775L5.44492 20.1895C4.90397 20.2641 4.463 20.6166 4.29414 21.1096C4.12529 21.6026 4.26351 22.1336 4.65487 22.4954L15.2202 32.2614C15.579 32.593 15.7426 33.0706 15.6579 33.5388L13.1638 47.3286C13.0914 47.7289 13.2013 48.1178 13.4732 48.4237C13.7492 48.734 14.1485 48.9121 14.5685 48.9121C14.7982 48.9121 15.0215 48.8588 15.2322 48.7537L28.2917 42.2431C28.5093 42.1346 28.7542 42.0773 28.9999 42.0773Z" fill="#F6F7EB"/>
</svg>
