<svg width="52" height="52" viewBox="0 0 52 52" fill="none" xmlns="http://www.w3.org/2000/svg">
<path d="M37.6493 0H14.3497C6.43729 0 0 6.4376 0 14.35V37.6497C0 45.5624 6.43729 51.9997 14.3497 51.9997H37.6493C45.5624 51.9997 51.9997 45.5621 51.9997 37.6497V14.35C52 6.4376 45.5624 0 37.6493 0ZM47.3863 37.6497C47.3863 43.0184 43.0184 47.386 37.6497 47.386H14.3497C8.98127 47.3863 4.61366 43.0184 4.61366 37.6497V14.35C4.61366 8.98157 8.98127 4.61366 14.3497 4.61366H37.6493C43.0181 4.61366 47.386 8.98157 47.386 14.35V37.6497H47.3863Z" fill="#F6F7EB"/>
<path d="M25.9998 12.6016C18.6115 12.6016 12.6008 18.6122 12.6008 26.0006C12.6008 33.3886 18.6115 39.399 25.9998 39.399C33.3882 39.399 39.3988 33.3886 39.3988 26.0006C39.3988 18.6122 33.3882 12.6016 25.9998 12.6016ZM25.9998 34.785C21.1558 34.785 17.2145 30.8443 17.2145 26.0003C17.2145 21.1559 21.1555 17.2149 25.9998 17.2149C30.8442 17.2149 34.7852 21.1559 34.7852 26.0003C34.7852 30.8443 30.8439 34.785 25.9998 34.785Z" fill="#F6F7EB"/>
<path d="M39.9607 8.68945C39.0718 8.68945 38.1986 9.04932 37.5709 9.67985C36.94 10.3073 36.5774 11.1808 36.5774 12.0728C36.5774 12.962 36.9403 13.8352 37.5709 14.4658C38.1983 15.0932 39.0718 15.4562 39.9607 15.4562C40.8527 15.4562 41.7232 15.0932 42.3537 14.4658C42.9842 13.8352 43.3441 12.9617 43.3441 12.0728C43.3441 11.1808 42.9842 10.3073 42.3537 9.67985C41.7262 9.04932 40.8527 8.68945 39.9607 8.68945Z" fill="#F6F7EB"/>
</svg>
