<svg width="218" height="38" viewBox="0 0 218 38" fill="none" xmlns="http://www.w3.org/2000/svg">
<path d="M46.506 37V33.16L44.718 36.178H44.574L42.786 33.16V37H42.576V32.74H42.768L44.646 35.908L46.524 32.74H46.716V37H46.506ZM51.053 32.74H51.233L53.063 37H52.841L52.211 35.53H50.075L49.445 37H49.217L51.053 32.74ZM52.145 35.35L51.143 33.004L50.135 35.35H52.145ZM55.1176 34.84C55.1176 34.584 55.1616 34.332 55.2496 34.084C55.3416 33.832 55.4736 33.604 55.6456 33.4C55.8176 33.192 56.0276 33.026 56.2756 32.902C56.5276 32.778 56.8136 32.716 57.1336 32.716C57.5136 32.716 57.8356 32.804 58.0996 32.98C58.3676 33.152 58.5656 33.374 58.6936 33.646L58.5136 33.73C58.4096 33.53 58.2796 33.37 58.1236 33.25C57.9716 33.13 57.8076 33.044 57.6316 32.992C57.4596 32.94 57.2856 32.914 57.1096 32.914C56.8256 32.914 56.5716 32.97 56.3476 33.082C56.1276 33.194 55.9416 33.344 55.7896 33.532C55.6376 33.72 55.5216 33.93 55.4416 34.162C55.3656 34.39 55.3276 34.622 55.3276 34.858C55.3276 35.122 55.3736 35.372 55.4656 35.608C55.5576 35.844 55.6836 36.054 55.8436 36.238C56.0076 36.422 56.1976 36.568 56.4136 36.676C56.6336 36.784 56.8716 36.838 57.1276 36.838C57.3076 36.838 57.4916 36.808 57.6796 36.748C57.8676 36.688 58.0436 36.594 58.2076 36.466C58.3716 36.338 58.5036 36.174 58.6036 35.974L58.7896 36.046C58.6936 36.258 58.5536 36.438 58.3696 36.586C58.1856 36.734 57.9816 36.846 57.7576 36.922C57.5376 36.998 57.3196 37.036 57.1036 37.036C56.8156 37.036 56.5496 36.974 56.3056 36.85C56.0616 36.722 55.8496 36.554 55.6696 36.346C55.4936 36.134 55.3576 35.898 55.2616 35.638C55.1656 35.374 55.1176 35.108 55.1176 34.84ZM64.3125 32.932H62.7165V37H62.5065V32.932H60.9105V32.74H64.3125V32.932ZM69.6377 36.808V37H66.8237V32.74H69.5837V32.932H67.0337V34.726H69.2657V34.918H67.0337V36.808H69.6377ZM72.3451 37V32.74H74.0911C74.2671 32.74 74.4291 32.778 74.5771 32.854C74.7251 32.926 74.8531 33.026 74.9611 33.154C75.0691 33.278 75.1531 33.418 75.2131 33.574C75.2771 33.726 75.3091 33.882 75.3091 34.042C75.3091 34.266 75.2591 34.478 75.1591 34.678C75.0591 34.878 74.9211 35.042 74.7451 35.17C74.5691 35.294 74.3631 35.356 74.1271 35.356H72.5551V37H72.3451ZM72.5551 35.164H74.1211C74.3251 35.164 74.4991 35.11 74.6431 35.002C74.7911 34.89 74.9031 34.75 74.9791 34.582C75.0591 34.41 75.0991 34.23 75.0991 34.042C75.0991 33.846 75.0531 33.664 74.9611 33.496C74.8691 33.328 74.7451 33.192 74.5891 33.088C74.4371 32.984 74.2691 32.932 74.0851 32.932H72.5551V35.164ZM77.5958 34.84C77.5958 34.584 77.6398 34.332 77.7278 34.084C77.8198 33.832 77.9518 33.604 78.1238 33.4C78.2958 33.192 78.5058 33.026 78.7538 32.902C79.0058 32.778 79.2918 32.716 79.6118 32.716C79.9918 32.716 80.3138 32.804 80.5778 32.98C80.8458 33.152 81.0438 33.374 81.1718 33.646L80.9918 33.73C80.8878 33.53 80.7578 33.37 80.6018 33.25C80.4498 33.13 80.2858 33.044 80.1098 32.992C79.9378 32.94 79.7638 32.914 79.5878 32.914C79.3038 32.914 79.0498 32.97 78.8258 33.082C78.6058 33.194 78.4198 33.344 78.2678 33.532C78.1158 33.72 77.9998 33.93 77.9198 34.162C77.8438 34.39 77.8058 34.622 77.8058 34.858C77.8058 35.122 77.8518 35.372 77.9438 35.608C78.0358 35.844 78.1618 36.054 78.3218 36.238C78.4858 36.422 78.6758 36.568 78.8918 36.676C79.1118 36.784 79.3498 36.838 79.6058 36.838C79.7858 36.838 79.9698 36.808 80.1578 36.748C80.3458 36.688 80.5218 36.594 80.6858 36.466C80.8498 36.338 80.9818 36.174 81.0818 35.974L81.2678 36.046C81.1718 36.258 81.0318 36.438 80.8478 36.586C80.6638 36.734 80.4598 36.846 80.2358 36.922C80.0158 36.998 79.7978 37.036 79.5818 37.036C79.2938 37.036 79.0278 36.974 78.7838 36.85C78.5398 36.722 78.3278 36.554 78.1478 36.346C77.9718 36.134 77.8358 35.898 77.7398 35.638C77.6438 35.374 77.5958 35.108 77.5958 34.84ZM83.8919 37V32.74H84.1019V34.726H84.8759L86.4419 32.74H86.6879L85.0559 34.81L86.7779 37H86.5139L84.8879 34.924H84.1019V37H83.8919ZM90.7165 32.74H90.8965L92.7265 37H92.5045L91.8745 35.53H89.7385L89.1085 37H88.8805L90.7165 32.74ZM91.8085 35.35L90.8065 33.004L89.7985 35.35H91.8085ZM95.0534 37L96.2414 35.146C95.9134 35.082 95.6614 34.94 95.4854 34.72C95.3094 34.496 95.2214 34.232 95.2214 33.928C95.2214 33.712 95.2754 33.514 95.3834 33.334C95.4954 33.154 95.6554 33.01 95.8634 32.902C96.0714 32.794 96.3194 32.74 96.6074 32.74H97.7534V37H97.5434V35.176H96.6194C96.5914 35.176 96.5634 35.176 96.5354 35.176C96.5114 35.176 96.4854 35.174 96.4574 35.17L95.2934 37H95.0534ZM96.5834 34.984H97.5434V32.932H96.6194C96.3794 32.932 96.1694 32.974 95.9894 33.058C95.8134 33.142 95.6754 33.26 95.5754 33.412C95.4794 33.56 95.4314 33.732 95.4314 33.928C95.4314 34.12 95.4734 34.296 95.5574 34.456C95.6454 34.616 95.7734 34.744 95.9414 34.84C96.1134 34.936 96.3274 34.984 96.5834 34.984ZM104.12 37V32.74H104.33V34.726H105.104L106.67 32.74H106.916L105.284 34.81L107.006 37H106.742L105.116 34.924H104.33V37H104.12ZM112.565 37V32.932H110.567L110.543 33.922C110.527 34.522 110.489 35.022 110.429 35.422C110.369 35.818 110.285 36.132 110.177 36.364C110.073 36.592 109.945 36.756 109.793 36.856C109.645 36.952 109.471 37 109.271 37V36.802C109.431 36.802 109.573 36.758 109.697 36.67C109.825 36.578 109.933 36.426 110.021 36.214C110.113 35.998 110.185 35.702 110.237 35.326C110.289 34.946 110.323 34.468 110.339 33.892L110.375 32.74H112.769V37H112.565ZM118.755 37.03C118.391 37.026 118.071 36.938 117.795 36.766C117.519 36.594 117.299 36.354 117.135 36.046C116.975 35.734 116.889 35.374 116.877 34.966H115.959V37H115.749V32.74H115.959V34.768H116.877C116.893 34.348 116.985 33.984 117.153 33.676C117.321 33.368 117.543 33.13 117.819 32.962C118.099 32.794 118.411 32.71 118.755 32.71C119.135 32.71 119.469 32.804 119.757 32.992C120.049 33.18 120.275 33.436 120.435 33.76C120.599 34.084 120.681 34.454 120.681 34.87C120.681 35.318 120.595 35.704 120.423 36.028C120.255 36.348 120.025 36.596 119.733 36.772C119.441 36.944 119.115 37.03 118.755 37.03ZM118.755 36.832C119.099 36.832 119.399 36.748 119.655 36.58C119.915 36.412 120.115 36.18 120.255 35.884C120.399 35.584 120.471 35.246 120.471 34.87C120.471 34.47 120.395 34.124 120.243 33.832C120.095 33.536 119.891 33.308 119.631 33.148C119.375 32.988 119.083 32.908 118.755 32.908C118.423 32.908 118.131 32.992 117.879 33.16C117.627 33.324 117.431 33.556 117.291 33.856C117.151 34.152 117.081 34.49 117.081 34.87C117.081 35.266 117.153 35.612 117.297 35.908C117.441 36.204 117.639 36.432 117.891 36.592C118.143 36.752 118.431 36.832 118.755 36.832ZM125.822 37V35.074C125.706 35.126 125.58 35.172 125.444 35.212C125.312 35.248 125.174 35.276 125.03 35.296C124.89 35.316 124.746 35.326 124.598 35.326C124.13 35.326 123.788 35.228 123.572 35.032C123.356 34.832 123.248 34.516 123.248 34.084V32.74H123.452V34.06C123.452 34.436 123.542 34.708 123.722 34.876C123.906 35.044 124.2 35.128 124.604 35.128C124.856 35.128 125.088 35.104 125.3 35.056C125.516 35.004 125.69 34.94 125.822 34.864V32.74H126.026V37H125.822ZM131.82 36.808V37H129.006V32.74H131.766V32.932H129.216V34.726H131.448V34.918H129.216V36.808H131.82ZM134.534 37V32.74H134.744V36.724L137.678 32.74H137.876V37H137.666V33.082L134.762 37H134.534ZM136.214 32.314C136.038 32.314 135.89 32.29 135.77 32.242C135.654 32.19 135.564 32.124 135.5 32.044C135.44 31.96 135.406 31.87 135.398 31.774H135.584C135.6 31.874 135.652 31.966 135.74 32.05C135.828 32.134 135.986 32.176 136.214 32.176C136.438 32.176 136.594 32.138 136.682 32.062C136.774 31.982 136.826 31.886 136.838 31.774H137.024C137.016 31.87 136.98 31.96 136.916 32.044C136.856 32.124 136.768 32.19 136.652 32.242C136.536 32.29 136.39 32.314 136.214 32.314Z" fill="white"/>
<path d="M43.824 25V7.96H47.112V14.824H48.792L53.856 7.96H57.552L51.36 16.216L58.032 25H54.024L48.744 17.824H47.112V25H43.824ZM59.3154 25.168V22.312C59.6994 22.296 60.0434 22.2 60.3474 22.024C60.6514 21.848 60.9154 21.552 61.1394 21.136C61.3794 20.704 61.5634 20.104 61.6914 19.336C61.8354 18.568 61.9314 17.584 61.9794 16.384L62.1474 12.424H71.5794V25H68.3634V15.232H64.9794L64.9314 16.696C64.8674 18.344 64.7074 19.712 64.4514 20.8C64.1954 21.888 63.8354 22.752 63.3714 23.392C62.9234 24.016 62.3634 24.464 61.6914 24.736C61.0194 25.008 60.2274 25.152 59.3154 25.168ZM86.0449 25.24C84.9089 25.24 83.9169 25.024 83.0689 24.592C82.2209 24.144 81.5249 23.536 80.9809 22.768C80.4529 21.984 80.1009 21.104 79.9249 20.128H77.9569V25H74.7409V12.424H77.9569V17.32H79.9249C80.1009 16.328 80.4529 15.448 80.9809 14.68C81.5249 13.896 82.2289 13.288 83.0929 12.856C83.9569 12.424 84.9409 12.208 86.0449 12.208C87.4049 12.208 88.5569 12.504 89.5009 13.096C90.4449 13.688 91.1649 14.48 91.6609 15.472C92.1729 16.448 92.4289 17.536 92.4289 18.736C92.4289 19.936 92.1729 21.032 91.6609 22.024C91.1489 23 90.4209 23.784 89.4769 24.376C88.5329 24.952 87.3889 25.24 86.0449 25.24ZM86.0449 22.504C86.6529 22.504 87.1889 22.344 87.6529 22.024C88.1169 21.704 88.4769 21.264 88.7329 20.704C88.9889 20.144 89.1169 19.488 89.1169 18.736C89.1169 17.952 88.9809 17.28 88.7089 16.72C88.4529 16.144 88.0929 15.704 87.6289 15.4C87.1649 15.096 86.6369 14.944 86.0449 14.944C85.4689 14.944 84.9489 15.104 84.4849 15.424C84.0369 15.728 83.6849 16.168 83.4289 16.744C83.1729 17.304 83.0449 17.968 83.0449 18.736C83.0449 19.504 83.1729 20.176 83.4289 20.752C83.6849 21.312 84.0369 21.744 84.4849 22.048C84.9489 22.352 85.4689 22.504 86.0449 22.504ZM101.817 25V20.488C101.337 20.696 100.849 20.848 100.353 20.944C99.873 21.04 99.321 21.088 98.697 21.088C97.369 21.088 96.329 20.736 95.577 20.032C94.825 19.312 94.449 18.264 94.449 16.888V12.424H97.665V16.456C97.665 17.208 97.825 17.76 98.145 18.112C98.481 18.464 98.993 18.64 99.681 18.64C100.065 18.64 100.449 18.6 100.833 18.52C101.217 18.44 101.545 18.328 101.817 18.184V12.424H105.057V25H101.817ZM108.221 25V12.448H111.437V20.704L117.077 12.424H120.005V25H116.789V16.936L111.221 25H108.221Z" fill="#F13535"/>
<path d="M122.46 16.36C122.46 15.32 122.644 14.304 123.012 13.312C123.396 12.304 123.948 11.392 124.668 10.576C125.388 9.744 126.268 9.088 127.308 8.608C128.348 8.112 129.532 7.864 130.86 7.864C132.428 7.864 133.78 8.208 134.916 8.896C136.068 9.584 136.924 10.48 137.484 11.584L134.94 13.336C134.652 12.696 134.276 12.192 133.812 11.824C133.348 11.44 132.852 11.176 132.324 11.032C131.796 10.872 131.276 10.792 130.764 10.792C129.932 10.792 129.204 10.96 128.58 11.296C127.972 11.632 127.46 12.072 127.044 12.616C126.628 13.16 126.316 13.768 126.108 14.44C125.916 15.112 125.82 15.784 125.82 16.456C125.82 17.208 125.94 17.936 126.18 18.64C126.42 19.328 126.756 19.944 127.188 20.488C127.636 21.016 128.164 21.44 128.772 21.76C129.396 22.064 130.076 22.216 130.812 22.216C131.34 22.216 131.876 22.128 132.42 21.952C132.964 21.776 133.468 21.496 133.932 21.112C134.396 20.728 134.756 20.232 135.012 19.624L137.724 21.184C137.388 22.032 136.836 22.752 136.068 23.344C135.316 23.936 134.468 24.384 133.524 24.688C132.58 24.992 131.644 25.144 130.716 25.144C129.5 25.144 128.388 24.896 127.38 24.4C126.372 23.888 125.5 23.216 124.764 22.384C124.044 21.536 123.476 20.592 123.06 19.552C122.66 18.496 122.46 17.432 122.46 16.36ZM147.409 25.24C146.433 25.24 145.569 25.024 144.817 24.592C144.081 24.144 143.505 23.544 143.089 22.792V30.112H139.873V12.424H142.681V14.584C143.161 13.848 143.769 13.272 144.505 12.856C145.241 12.424 146.081 12.208 147.025 12.208C147.873 12.208 148.649 12.376 149.353 12.712C150.073 13.048 150.697 13.52 151.225 14.128C151.753 14.72 152.161 15.408 152.449 16.192C152.753 16.96 152.905 17.792 152.905 18.688C152.905 19.904 152.665 21.008 152.185 22C151.721 22.992 151.073 23.784 150.241 24.376C149.425 24.952 148.481 25.24 147.409 25.24ZM146.329 22.504C146.825 22.504 147.273 22.4 147.673 22.192C148.073 21.984 148.417 21.704 148.705 21.352C149.009 20.984 149.233 20.576 149.377 20.128C149.537 19.664 149.617 19.184 149.617 18.688C149.617 18.16 149.529 17.672 149.353 17.224C149.193 16.776 148.953 16.384 148.633 16.048C148.313 15.696 147.937 15.424 147.505 15.232C147.089 15.04 146.633 14.944 146.137 14.944C145.833 14.944 145.521 15 145.201 15.112C144.897 15.208 144.601 15.352 144.313 15.544C144.025 15.736 143.769 15.96 143.545 16.216C143.337 16.472 143.185 16.752 143.089 17.056V20.008C143.281 20.472 143.537 20.896 143.857 21.28C144.193 21.664 144.577 21.968 145.009 22.192C145.441 22.4 145.881 22.504 146.329 22.504ZM161.132 25.24C160.108 25.24 159.188 25.072 158.372 24.736C157.556 24.384 156.86 23.904 156.284 23.296C155.724 22.688 155.292 21.992 154.988 21.208C154.684 20.424 154.532 19.6 154.532 18.736C154.532 17.856 154.684 17.024 154.988 16.24C155.292 15.456 155.724 14.76 156.284 14.152C156.86 13.544 157.556 13.072 158.372 12.736C159.188 12.384 160.108 12.208 161.132 12.208C162.156 12.208 163.068 12.384 163.868 12.736C164.684 13.072 165.38 13.544 165.956 14.152C166.532 14.76 166.964 15.456 167.252 16.24C167.556 17.024 167.708 17.856 167.708 18.736C167.708 19.6 167.556 20.424 167.252 21.208C166.964 21.992 166.532 22.688 165.956 23.296C165.396 23.904 164.708 24.384 163.892 24.736C163.076 25.072 162.156 25.24 161.132 25.24ZM157.844 18.736C157.844 19.472 157.988 20.128 158.276 20.704C158.564 21.264 158.956 21.704 159.452 22.024C159.948 22.344 160.508 22.504 161.132 22.504C161.74 22.504 162.292 22.344 162.788 22.024C163.284 21.688 163.676 21.24 163.964 20.68C164.268 20.104 164.42 19.448 164.42 18.712C164.42 17.992 164.268 17.344 163.964 16.768C163.676 16.192 163.284 15.744 162.788 15.424C162.292 15.104 161.74 14.944 161.132 14.944C160.508 14.944 159.948 15.112 159.452 15.448C158.956 15.768 158.564 16.216 158.276 16.792C157.988 17.352 157.844 18 157.844 18.736ZM177.126 25V20.488C176.646 20.696 176.158 20.848 175.662 20.944C175.182 21.04 174.63 21.088 174.006 21.088C172.678 21.088 171.638 20.736 170.886 20.032C170.134 19.312 169.758 18.264 169.758 16.888V12.424H172.974V16.456C172.974 17.208 173.134 17.76 173.454 18.112C173.79 18.464 174.302 18.64 174.99 18.64C175.374 18.64 175.758 18.6 176.142 18.52C176.526 18.44 176.854 18.328 177.126 18.184V12.424H180.366V25H177.126ZM183.53 25V12.424H186.746V17.224H191.834V12.424H195.05V25H191.834V19.912H186.746V25H183.53ZM204.039 25.24C203.015 25.24 202.095 25.072 201.279 24.736C200.463 24.384 199.767 23.904 199.191 23.296C198.631 22.688 198.199 21.992 197.895 21.208C197.591 20.424 197.439 19.6 197.439 18.736C197.439 17.856 197.591 17.024 197.895 16.24C198.199 15.456 198.631 14.76 199.191 14.152C199.767 13.544 200.463 13.072 201.279 12.736C202.095 12.384 203.015 12.208 204.039 12.208C205.063 12.208 205.975 12.384 206.775 12.736C207.591 13.072 208.287 13.544 208.863 14.152C209.439 14.76 209.871 15.456 210.159 16.24C210.463 17.024 210.615 17.856 210.615 18.736C210.615 19.6 210.463 20.424 210.159 21.208C209.871 21.992 209.439 22.688 208.863 23.296C208.303 23.904 207.615 24.384 206.799 24.736C205.983 25.072 205.063 25.24 204.039 25.24ZM200.751 18.736C200.751 19.472 200.895 20.128 201.183 20.704C201.471 21.264 201.863 21.704 202.359 22.024C202.855 22.344 203.415 22.504 204.039 22.504C204.647 22.504 205.199 22.344 205.695 22.024C206.191 21.688 206.583 21.24 206.871 20.68C207.175 20.104 207.327 19.448 207.327 18.712C207.327 17.992 207.175 17.344 206.871 16.768C206.583 16.192 206.191 15.744 205.695 15.424C205.199 15.104 204.647 14.944 204.039 14.944C203.415 14.944 202.855 15.112 202.359 15.448C201.863 15.768 201.471 16.216 201.183 16.792C200.895 17.352 200.751 18 200.751 18.736Z" fill="white"/>
<path d="M0 0H25C30.5228 0 35 4.47715 35 10V35H10C4.47715 35 0 30.5228 0 25V0Z" fill="#F13535"/>
<g clip-path="url(#clip0)">
<path d="M28.7452 25.6606C28.7337 25.5113 28.667 25.3677 28.5575 25.2606L19.1 15.8031C19.4721 14.9266 19.6685 13.9773 19.6685 12.9963C19.6685 11.079 18.9207 9.27514 17.5673 7.91831C16.2119 6.56418 14.4092 5.81714 12.4909 5.81714C10.5716 5.81714 8.77211 6.56443 7.41452 7.91941C4.61349 10.7189 4.6129 15.2724 7.4141 18.0716C8.7716 19.4295 10.5717 20.1773 12.49 20.1773C13.4712 20.1773 14.4182 19.9793 15.2968 19.6067L18.4038 22.716C18.533 22.8437 18.7035 22.9114 18.8874 22.9054L20.5806 22.846L20.5253 24.5434C20.5201 24.7225 20.5848 24.8967 20.7145 25.0242C20.8396 25.1516 21.0152 25.2209 21.1935 25.2136L22.893 25.1556L22.8319 26.8511C22.8266 27.0303 22.8955 27.2049 23.0205 27.3324C23.1498 27.4598 23.3003 27.5283 23.5042 27.5221L25.1994 27.4644L25.1426 29.1602C25.1326 29.3483 25.2118 29.5292 25.3463 29.6576C25.4704 29.7704 25.6251 29.8312 25.7883 29.8312C25.8117 29.8312 25.8357 29.8302 25.8596 29.8281L28.4591 29.5394C28.8104 29.5011 29.0662 29.1876 29.036 28.8356L28.7452 25.6606ZM11.6238 12.1294C10.8253 12.927 9.53449 12.927 8.73773 12.1294C7.9398 11.3316 7.9398 10.041 8.73773 9.24388C9.53449 8.44679 10.8249 8.44603 11.6238 9.24363C12.4206 10.0406 12.4201 11.3321 11.6238 12.1294ZM26.5262 25.8772C26.4313 25.972 26.3042 26.0194 26.1807 26.0194C26.0571 26.0194 25.9299 25.972 25.8351 25.8772L17.7883 17.828C18.0123 17.5864 18.2161 17.3321 18.4011 17.0647L26.5261 25.1882C26.7159 25.3779 26.7159 25.6875 26.5262 25.8772Z" fill="#F6F7EB"/>
</g>
<rect x="140" y="30" width="3" height="7" fill="white"/>
<defs>
<clipPath id="clip0">
<rect width="25.2778" height="25.2778" fill="white" transform="translate(4.53711 5.18518)"/>
</clipPath>
</defs>
</svg>
