<svg width="85" height="53" viewBox="0 0 85 53" fill="none" xmlns="http://www.w3.org/2000/svg">
<path d="M43.0131 53C55.3096 53 50.9251 45.2337 51.8742 43.0007C51.8601 41.3329 51.8459 39.7288 51.9026 38.7536C52.6817 38.9727 54.5198 39.9019 58.3164 43.5837C64.1778 49.4843 65.6759 53 70.4111 53H79.127C81.8895 53 83.3274 51.8587 84.0464 50.9012C84.7405 49.9755 85.4205 48.3501 84.6768 45.8203C82.7324 39.7288 71.3921 29.2101 70.6873 28.1006C70.7936 27.8957 70.9636 27.6236 71.0521 27.4823H71.0451C73.2834 24.5319 81.8258 11.7625 83.083 6.65327C83.0866 6.6462 83.0901 6.6356 83.0901 6.625C83.7701 4.293 83.1468 2.78073 82.5022 1.92567C81.5318 0.6466 79.9877 0 77.9016 0H69.1857C66.2674 0 64.0539 1.46633 62.9347 4.14107C61.0612 8.8934 55.7983 18.6666 51.853 22.1257C51.7326 17.225 51.814 13.4832 51.8778 10.7025C52.0053 5.2788 52.4161 0 46.7743 0H33.0753C29.5407 0 26.1585 3.85133 29.8205 8.42347C33.0221 12.4303 30.9715 14.6633 31.6622 25.7792C28.9705 22.8995 24.1822 15.1227 20.7964 5.1834C19.8473 2.49453 18.4094 0.00353308 14.3613 0.00353308H5.64535C2.11081 0.00353308 0 1.92567 0 5.14453C0 12.3737 16.04 53 43.0131 53ZM14.3613 5.30353C15.1298 5.30353 15.2077 5.30353 15.778 6.91827C19.2452 17.1049 27.0226 32.1781 32.7034 32.1781C36.9711 32.1781 36.9711 27.8144 36.9711 26.1714L36.9675 13.091C36.7338 8.76267 35.1542 6.60733 34.1165 5.3L46.5405 5.31413C46.5476 5.3742 46.4697 19.7831 46.5759 23.2741C46.5759 28.2313 50.5213 31.0721 56.6802 24.8535C63.1791 17.5359 67.6734 6.59673 67.854 6.15153C68.1197 5.51553 68.3499 5.3 69.1857 5.3H77.9016H77.9371C77.9335 5.3106 77.9335 5.3212 77.93 5.3318C77.1331 9.0418 69.2672 20.8643 66.6357 24.5355C66.5932 24.592 66.5543 24.6521 66.5153 24.7121C65.3572 26.5989 64.4151 28.6836 66.6747 31.6163H66.6782C66.8836 31.8636 67.4184 32.4431 68.1976 33.2487C70.6201 35.7432 78.9287 44.2727 79.6654 47.6647C79.1766 47.7424 78.6454 47.6859 70.4111 47.7035C68.658 47.7035 67.2874 45.0889 62.0564 39.8242C57.3531 35.2591 54.3002 33.3935 51.5201 33.3935C46.1226 33.3935 46.5157 37.7643 46.5653 43.0501C46.583 48.7812 46.5476 46.9686 46.5866 47.329C46.2714 47.4527 45.3683 47.7 43.0131 47.7C20.5414 47.7 5.90744 12.1158 5.34432 5.31413C5.53911 5.29647 8.22012 5.30707 14.3613 5.30353Z" fill="#F6F7EB"/>
</svg>
