<svg width="56" height="53" viewBox="0 0 56 53" fill="none" xmlns="http://www.w3.org/2000/svg">
<g clip-path="url(#clip0)">
<path d="M41.4371 30.4544C41.328 30.4049 37.2455 28.5022 36.52 28.2551C36.2238 28.1544 35.9066 28.0562 35.5691 28.0562C35.0178 28.0562 34.5547 28.3162 34.194 28.8269C33.7862 29.4006 32.5516 30.7664 32.1702 31.1744C32.1204 31.2283 32.0524 31.2926 32.0116 31.2926C31.9751 31.2926 31.3433 31.0464 31.152 30.9677C26.7726 29.1673 23.4484 24.8376 22.9925 24.1075C22.9275 24.0025 22.9247 23.9549 22.9242 23.9549C22.9402 23.8993 23.0875 23.7596 23.1635 23.6875C23.3858 23.4792 23.6267 23.2048 23.8598 22.9393C23.9702 22.8135 24.0807 22.6875 24.1893 22.5688C24.5275 22.1964 24.678 21.9073 24.8525 21.5725L24.944 21.3985C25.3702 20.5971 25.0062 19.9208 24.8885 19.7025C24.792 19.5197 23.0682 15.5822 22.8849 15.1686C22.4442 14.1703 21.8618 13.7056 21.0525 13.7056C20.9775 13.7056 21.0525 13.7056 20.7376 13.7181C20.3542 13.7334 18.266 13.9936 17.3427 14.5444C16.3636 15.1287 14.7073 16.9909 14.7073 20.2659C14.7073 23.2134 16.6836 25.9964 17.5322 27.0549C17.5533 27.0815 17.592 27.1357 17.6482 27.2135C20.8978 31.7051 24.9489 35.0338 29.0556 36.5864C33.0093 38.0811 34.8815 38.2539 35.9458 38.2539C35.946 38.2539 35.946 38.2539 35.946 38.2539C36.3933 38.2539 36.7513 38.2206 37.0671 38.1912L37.2675 38.1731C38.6333 38.0585 41.6347 36.5866 42.3175 34.791C42.8553 33.3767 42.9971 31.8314 42.6393 31.2706C42.3942 30.8893 41.9718 30.6974 41.4371 30.4544Z" fill="#F6F7EB"/>
<path d="M28.4973 0C13.3307 0 0.991838 11.5901 0.991838 25.8363C0.991838 30.444 2.29475 34.9544 4.76293 38.9018L0.0387474 52.0907C-0.0492526 52.3366 0.0162019 52.6085 0.208384 52.7937C0.347111 52.9277 0.535293 53 0.727475 53C0.801111 53 0.875293 52.9895 0.947656 52.9677L15.4786 48.5976C19.4549 50.6083 23.9491 51.6697 28.4975 51.6697C43.6626 51.6698 56.0002 40.0809 56.0002 25.8363C56.0002 11.5901 43.6626 0 28.4973 0ZM28.4973 46.2879C24.2175 46.2879 20.0722 45.1183 16.5089 42.9054C16.3891 42.8309 16.25 42.7927 16.11 42.7927C16.036 42.7927 15.9618 42.8033 15.8897 42.825L8.61057 45.0149L10.9604 38.4537C11.0364 38.2414 10.9984 38.0072 10.8584 37.8262C8.14493 34.3172 6.71057 30.1713 6.71057 25.8363C6.71057 14.5578 16.484 5.38191 28.4971 5.38191C40.5087 5.38191 50.2811 14.5578 50.2811 25.8363C50.2813 37.1134 40.5091 46.2879 28.4973 46.2879Z" fill="#F6F7EB"/>
</g>
<defs>
<clipPath id="clip0">
<rect width="56" height="53" fill="white"/>
</clipPath>
</defs>
</svg>
