<svg width="114" height="48" viewBox="0 0 114 48" fill="none" xmlns="http://www.w3.org/2000/svg">
<path d="M67.2035 33.4533H35.7853C35.7853 33.4533 33.1996 33.4219 32.683 36.2817C31.9771 40.1774 30.2265 43.7363 30.2265 43.7363C30.2265 43.7363 29.3226 46.6931 26.3495 46.9499C23.3764 47.2068 7.48077 46.4362 4.63683 45.5372C4.63683 45.5372 1.06684 44.798 0.630638 42.1952C-0.207333 29.7831 -0.210203 17.3282 0.622029 4.9133L0.630638 4.80484C1.06684 2.20199 4.63683 1.4628 4.63683 1.4628C7.48077 0.563787 23.3764 -0.20678 26.3495 0.05008C29.3226 0.30694 30.2265 3.26367 30.2265 3.26367C30.2265 3.26367 31.9771 6.82262 32.683 10.7183C33.1996 13.578 35.7853 13.5467 35.7853 13.5467H67.2035H103.319C103.693 13.5467 104.051 13.6779 104.335 13.9177L108.474 17.7049C108.738 17.9447 108.565 18.3842 108.207 18.3842H38.8444C37.8314 18.3842 36.9188 19.0891 36.761 20.0823C36.7352 20.2507 36.7294 20.4277 36.7552 20.6103C36.8758 21.4808 37.6822 22.0944 38.5632 22.0944H111.96C112.262 22.0944 112.557 22.1829 112.804 22.357C113.553 22.885 114.862 24.2007 113.183 26.1756L108.321 31.9179C108.321 31.9179 106.06 34.6549 104.068 32.6228C102.404 30.9247 101.098 29.5348 100.432 28.7813C100.154 28.4674 99.6634 28.4588 99.3735 28.7671L95.7433 32.6171C95.2956 33.0909 94.7274 33.4533 94.0932 33.6046C93.3585 33.7815 92.423 33.7302 91.6108 32.8226C90.4199 31.4926 88.5746 29.6718 87.6792 28.7985C87.3923 28.5188 86.9302 28.5302 86.6547 28.8241L83.102 32.6143C83.102 32.6143 81.2797 34.6292 79.0499 32.8169C77.4657 31.5269 75.8816 29.8316 75.0982 28.9583C74.8227 28.6501 74.3434 28.6415 74.0536 28.9354L71.313 31.7238C70.3545 32.6999 69.086 33.3392 67.7171 33.4391C67.5478 33.4533 67.3756 33.459 67.2035 33.4533Z" fill="#F13535"/>
<path d="M13.115 29.1139C13.115 29.6452 12.6382 30.0597 12.0958 29.9929C9.92606 29.7203 5.04419 28.4992 5.04419 23C5.04419 17.5008 9.92606 16.2769 12.0958 16.0071C12.6382 15.9404 13.115 16.352 13.115 16.8861V29.1139Z" fill="#121212"/>
<path d="M35.216 47C35.0987 47 35 46.96 34.92 46.88C34.84 46.8 34.8 46.7013 34.8 46.584V41.168C34.8 41.0453 34.84 40.9467 34.92 40.872C35 40.792 35.0987 40.752 35.216 40.752C35.3387 40.752 35.4373 40.792 35.512 40.872C35.592 40.9467 35.632 41.0453 35.632 41.168V43.464H36.456L38.608 40.888C38.6827 40.7973 38.7787 40.752 38.896 40.752C39.0187 40.7467 39.1173 40.7867 39.192 40.872C39.2667 40.9573 39.3013 41.048 39.296 41.144C39.296 41.2347 39.2587 41.3227 39.184 41.408L37.16 43.76L39.392 46.352C39.4667 46.4373 39.5067 46.528 39.512 46.624C39.5227 46.7147 39.4827 46.8053 39.392 46.896C39.3173 46.9707 39.216 47.0053 39.088 47C38.96 47 38.8587 46.9573 38.784 46.872L36.488 44.2H35.632V46.584C35.632 46.7013 35.592 46.8 35.512 46.88C35.4373 46.96 35.3387 47 35.216 47ZM40.7796 47C40.6302 47 40.5156 46.936 40.4356 46.808C40.3556 46.68 40.3476 46.544 40.4116 46.4L42.6596 41.032C42.7396 40.8453 42.8702 40.752 43.0516 40.752C43.2436 40.752 43.3742 40.8453 43.4436 41.032L45.6996 46.416C45.7582 46.5653 45.7502 46.7013 45.6756 46.824C45.6062 46.9413 45.4942 47 45.3396 47C45.2596 47 45.1822 46.9787 45.1076 46.936C45.0382 46.888 44.9876 46.824 44.9556 46.744L43.0836 42.128L41.1636 46.744C41.1262 46.8293 41.0702 46.8933 40.9956 46.936C40.9262 46.9787 40.8542 47 40.7796 47ZM47.4751 47C47.3577 47 47.2591 46.96 47.1791 46.88C47.0991 46.8 47.0591 46.7013 47.0591 46.584V41.168C47.0591 41.0453 47.0991 40.9467 47.1791 40.872C47.2591 40.792 47.3577 40.752 47.4751 40.752C47.5977 40.752 47.6964 40.792 47.7711 40.872C47.8511 40.9467 47.8911 41.0453 47.8911 41.168V43.464H49.1951C49.2484 42.9147 49.4057 42.4293 49.6671 42.008C49.9337 41.5867 50.2831 41.2587 50.7151 41.024C51.1471 40.7893 51.6377 40.672 52.1871 40.672C52.6457 40.672 53.0617 40.752 53.4351 40.912C53.8137 41.0667 54.1417 41.288 54.4191 41.576C54.6964 41.8587 54.9097 42.1947 55.0591 42.584C55.2084 42.9733 55.2831 43.4027 55.2831 43.872C55.2831 44.3413 55.2084 44.7733 55.0591 45.168C54.9097 45.5573 54.6964 45.896 54.4191 46.184C54.1417 46.4667 53.8137 46.688 53.4351 46.848C53.0617 47.0027 52.6457 47.08 52.1871 47.08C51.6271 47.08 51.1284 46.96 50.6911 46.72C50.2591 46.4747 49.9097 46.136 49.6431 45.704C49.3817 45.272 49.2297 44.7707 49.1871 44.2H47.8911V46.584C47.8911 46.7013 47.8511 46.8 47.7711 46.88C47.6964 46.96 47.5977 47 47.4751 47ZM52.1871 46.328C52.6351 46.328 53.0297 46.2213 53.3711 46.008C53.7177 45.7893 53.9897 45.496 54.1871 45.128C54.3844 44.7547 54.4831 44.336 54.4831 43.872C54.4831 43.408 54.3844 42.992 54.1871 42.624C53.9897 42.2507 53.7177 41.9573 53.3711 41.744C53.0297 41.5307 52.6351 41.424 52.1871 41.424C51.7551 41.424 51.3711 41.5307 51.0351 41.744C50.7044 41.9573 50.4431 42.2507 50.2511 42.624C50.0644 42.992 49.9711 43.408 49.9711 43.872C49.9711 44.336 50.0644 44.7547 50.2511 45.128C50.4431 45.496 50.7044 45.7893 51.0351 46.008C51.3711 46.2213 51.7551 46.328 52.1871 46.328ZM59.0383 44.96C58.265 44.96 57.6756 44.7227 57.2703 44.248C56.8703 43.768 56.6703 43.1173 56.6703 42.296V41.168C56.6703 41.0453 56.7103 40.9467 56.7903 40.872C56.8703 40.792 56.969 40.752 57.0863 40.752C57.209 40.752 57.3076 40.792 57.3823 40.872C57.4623 40.9467 57.5023 41.0453 57.5023 41.168V42.296C57.5023 42.7013 57.5503 43.0507 57.6463 43.344C57.7476 43.632 57.913 43.8533 58.1423 44.008C58.377 44.1627 58.6916 44.24 59.0863 44.24C59.417 44.24 59.7076 44.2 59.9583 44.12C60.209 44.04 60.4036 43.9307 60.5423 43.792C60.6863 43.648 60.7583 43.4827 60.7583 43.296V41.168C60.7583 41.0453 60.7983 40.9467 60.8783 40.872C60.9583 40.792 61.057 40.752 61.1743 40.752C61.297 40.752 61.3956 40.792 61.4703 40.872C61.5503 40.9467 61.5903 41.0453 61.5903 41.168V46.584C61.5903 46.7013 61.5503 46.8 61.4703 46.88C61.3956 46.96 61.297 47 61.1743 47C61.057 47 60.9583 46.96 60.8783 46.88C60.7983 46.8 60.7583 46.7013 60.7583 46.584V44.312C60.5716 44.5147 60.329 44.6747 60.0303 44.792C59.737 44.904 59.4063 44.96 59.0383 44.96ZM63.9845 47C63.8672 47 63.7658 46.96 63.6805 46.88C63.5952 46.8 63.5525 46.7013 63.5525 46.584V41.168C63.5525 41.0453 63.5952 40.9467 63.6805 40.872C63.7658 40.792 63.8672 40.752 63.9845 40.752C64.1072 40.752 64.2032 40.792 64.2725 40.872C64.3472 40.9467 64.3845 41.0453 64.3845 41.168V45.704L68.2245 40.904C68.3098 40.8027 68.4165 40.752 68.5445 40.752C68.6672 40.752 68.7658 40.792 68.8405 40.872C68.9205 40.9467 68.9605 41.0453 68.9605 41.168V46.584C68.9605 46.7013 68.9205 46.8 68.8405 46.88C68.7658 46.96 68.6672 47 68.5445 47C68.4272 47 68.3285 46.96 68.2485 46.88C68.1685 46.8 68.1285 46.7013 68.1285 46.584V42.056L64.3045 46.856C64.2672 46.8987 64.2192 46.9333 64.1605 46.96C64.1018 46.9867 64.0432 47 63.9845 47ZM76.4241 47.08C75.9921 47.08 75.5867 47 75.2081 46.84C74.8347 46.6747 74.5067 46.448 74.2241 46.16C73.9467 45.8667 73.7281 45.5253 73.5681 45.136C73.4134 44.7467 73.3361 44.3253 73.3361 43.872C73.3361 43.424 73.4134 43.008 73.5681 42.624C73.7281 42.2347 73.9467 41.896 74.2241 41.608C74.5067 41.3147 74.8347 41.0853 75.2081 40.92C75.5814 40.7547 75.9867 40.672 76.4241 40.672C76.8347 40.672 77.1867 40.7253 77.4801 40.832C77.7787 40.9387 78.0774 41.1147 78.3761 41.36C78.4401 41.4133 78.4827 41.464 78.5041 41.512C78.5254 41.56 78.5361 41.6187 78.5361 41.688C78.5361 41.7893 78.4987 41.8747 78.4241 41.944C78.3547 42.008 78.2694 42.0453 78.1681 42.056C78.0667 42.0613 77.9681 42.0267 77.8721 41.952C77.6747 41.7813 77.4694 41.6507 77.2561 41.56C77.0481 41.4693 76.7707 41.424 76.4241 41.424C76.1094 41.424 75.8134 41.488 75.5361 41.616C75.2587 41.744 75.0134 41.92 74.8001 42.144C74.5921 42.368 74.4294 42.6293 74.3121 42.928C74.1947 43.2213 74.1361 43.536 74.1361 43.872C74.1361 44.2133 74.1947 44.5333 74.3121 44.832C74.4294 45.1253 74.5921 45.384 74.8001 45.608C75.0134 45.832 75.2587 46.008 75.5361 46.136C75.8134 46.2587 76.1094 46.32 76.4241 46.32C76.6961 46.32 76.9521 46.2747 77.1921 46.184C77.4374 46.088 77.6721 45.9573 77.8961 45.792C77.9921 45.7227 78.0854 45.6933 78.1761 45.704C78.2721 45.7093 78.3521 45.7467 78.4161 45.816C78.4801 45.88 78.5121 45.9707 78.5121 46.088C78.5121 46.2 78.4694 46.2987 78.3841 46.384C77.8081 46.848 77.1547 47.08 76.4241 47.08ZM80.6188 47C80.5015 47 80.4028 46.96 80.3228 46.88C80.2428 46.8 80.2028 46.7013 80.2028 46.584V41.168C80.2028 41.0453 80.2428 40.9467 80.3228 40.872C80.4028 40.792 80.5015 40.752 80.6188 40.752H82.2188C82.6188 40.752 82.9735 40.84 83.2828 41.016C83.5921 41.192 83.8321 41.4373 84.0028 41.752C84.1788 42.0613 84.2668 42.4187 84.2668 42.824C84.2668 43.2133 84.1788 43.56 84.0028 43.864C83.8321 44.168 83.5921 44.4053 83.2828 44.576C82.9735 44.7467 82.6188 44.832 82.2188 44.832H81.0348V46.584C81.0348 46.7013 80.9948 46.8 80.9148 46.88C80.8401 46.96 80.7415 47 80.6188 47ZM81.0348 44.064H82.2188C82.5815 44.064 82.8801 43.9493 83.1148 43.72C83.3495 43.4853 83.4668 43.1867 83.4668 42.824C83.4668 42.568 83.4135 42.344 83.3068 42.152C83.2001 41.9547 83.0535 41.8 82.8668 41.688C82.6801 41.576 82.4641 41.52 82.2188 41.52H81.0348V44.064ZM88.4352 47.08C87.9659 47.08 87.5365 47.0027 87.1472 46.848C86.7579 46.688 86.4219 46.4667 86.1392 46.184C85.8619 45.896 85.6459 45.5573 85.4912 45.168C85.3365 44.7733 85.2592 44.3413 85.2592 43.872C85.2592 43.4027 85.3365 42.9733 85.4912 42.584C85.6459 42.1947 85.8619 41.8587 86.1392 41.576C86.4219 41.288 86.7579 41.0667 87.1472 40.912C87.5365 40.752 87.9659 40.672 88.4352 40.672C88.9045 40.672 89.3312 40.752 89.7152 40.912C90.1045 41.0667 90.4405 41.288 90.7232 41.576C91.0059 41.8587 91.2245 42.1947 91.3792 42.584C91.5339 42.9733 91.6112 43.4027 91.6112 43.872C91.6112 44.3413 91.5339 44.7733 91.3792 45.168C91.2245 45.5573 91.0059 45.896 90.7232 46.184C90.4405 46.4667 90.1045 46.688 89.7152 46.848C89.3312 47.0027 88.9045 47.08 88.4352 47.08ZM88.4352 46.328C88.8992 46.328 89.3099 46.2213 89.6672 46.008C90.0245 45.7893 90.3045 45.496 90.5072 45.128C90.7099 44.7547 90.8112 44.336 90.8112 43.872C90.8112 43.408 90.7099 42.992 90.5072 42.624C90.3045 42.2507 90.0245 41.9573 89.6672 41.744C89.3099 41.5307 88.8992 41.424 88.4352 41.424C87.9712 41.424 87.5605 41.5307 87.2032 41.744C86.8459 41.9573 86.5659 42.2507 86.3632 42.624C86.1605 42.992 86.0592 43.408 86.0592 43.872C86.0592 44.336 86.1605 44.7547 86.3632 45.128C86.5659 45.496 86.8459 45.7893 87.2032 46.008C87.5605 46.2213 87.9712 46.328 88.4352 46.328ZM95.3624 44.96C94.589 44.96 93.9997 44.7227 93.5944 44.248C93.1944 43.768 92.9944 43.1173 92.9944 42.296V41.168C92.9944 41.0453 93.0344 40.9467 93.1144 40.872C93.1944 40.792 93.293 40.752 93.4104 40.752C93.533 40.752 93.6317 40.792 93.7064 40.872C93.7864 40.9467 93.8264 41.0453 93.8264 41.168V42.296C93.8264 42.7013 93.8744 43.0507 93.9704 43.344C94.0717 43.632 94.237 43.8533 94.4664 44.008C94.701 44.1627 95.0157 44.24 95.4104 44.24C95.741 44.24 96.0317 44.2 96.2824 44.12C96.533 44.04 96.7277 43.9307 96.8664 43.792C97.0104 43.648 97.0824 43.4827 97.0824 43.296V41.168C97.0824 41.0453 97.1224 40.9467 97.2024 40.872C97.2824 40.792 97.381 40.752 97.4984 40.752C97.621 40.752 97.7197 40.792 97.7944 40.872C97.8744 40.9467 97.9144 41.0453 97.9144 41.168V46.584C97.9144 46.7013 97.8744 46.8 97.7944 46.88C97.7197 46.96 97.621 47 97.4984 47C97.381 47 97.2824 46.96 97.2024 46.88C97.1224 46.8 97.0824 46.7013 97.0824 46.584V44.312C96.8957 44.5147 96.653 44.6747 96.3544 44.792C96.061 44.904 95.7304 44.96 95.3624 44.96ZM100.293 47C100.175 47 100.077 46.96 99.9966 46.88C99.9166 46.8 99.8766 46.7013 99.8766 46.584V41.168C99.8766 41.0453 99.9166 40.9467 99.9966 40.872C100.077 40.792 100.175 40.752 100.293 40.752C100.415 40.752 100.514 40.792 100.589 40.872C100.669 40.9467 100.709 41.0453 100.709 41.168V43.464H104.421V41.168C104.421 41.0453 104.461 40.9467 104.541 40.872C104.621 40.792 104.719 40.752 104.837 40.752C104.959 40.752 105.058 40.792 105.133 40.872C105.207 40.9467 105.245 41.0453 105.245 41.168V46.584C105.245 46.7013 105.207 46.8 105.133 46.88C105.058 46.96 104.959 47 104.837 47C104.719 47 104.621 46.96 104.541 46.88C104.461 46.8 104.421 46.7013 104.421 46.584V44.2H100.709V46.584C100.709 46.7013 100.669 46.8 100.589 46.88C100.514 46.96 100.415 47 100.293 47ZM110.093 47.08C109.624 47.08 109.195 47.0027 108.805 46.848C108.416 46.688 108.08 46.4667 107.797 46.184C107.52 45.896 107.304 45.5573 107.149 45.168C106.995 44.7733 106.917 44.3413 106.917 43.872C106.917 43.4027 106.995 42.9733 107.149 42.584C107.304 42.1947 107.52 41.8587 107.797 41.576C108.08 41.288 108.416 41.0667 108.805 40.912C109.195 40.752 109.624 40.672 110.093 40.672C110.563 40.672 110.989 40.752 111.373 40.912C111.763 41.0667 112.099 41.288 112.381 41.576C112.664 41.8587 112.883 42.1947 113.037 42.584C113.192 42.9733 113.269 43.4027 113.269 43.872C113.269 44.3413 113.192 44.7733 113.037 45.168C112.883 45.5573 112.664 45.896 112.381 46.184C112.099 46.4667 111.763 46.688 111.373 46.848C110.989 47.0027 110.563 47.08 110.093 47.08ZM110.093 46.328C110.557 46.328 110.968 46.2213 111.325 46.008C111.683 45.7893 111.963 45.496 112.165 45.128C112.368 44.7547 112.469 44.336 112.469 43.872C112.469 43.408 112.368 42.992 112.165 42.624C111.963 42.2507 111.683 41.9573 111.325 41.744C110.968 41.5307 110.557 41.424 110.093 41.424C109.629 41.424 109.219 41.5307 108.861 41.744C108.504 41.9573 108.224 42.2507 108.021 42.624C107.819 42.992 107.717 43.408 107.717 43.872C107.717 44.336 107.819 44.7547 108.021 45.128C108.224 45.496 108.504 45.7893 108.861 46.008C109.219 46.2213 109.629 46.328 110.093 46.328Z" fill="#F13535"/>
<path d="M34.92 46.88L34.5664 47.2336H34.5664L34.92 46.88ZM34.92 40.872L35.2612 41.2375L35.2675 41.2316L35.2736 41.2256L34.92 40.872ZM35.512 40.872L35.1465 41.2132L35.1582 41.2258L35.1708 41.2375L35.512 40.872ZM35.632 43.464H35.132V43.964H35.632V43.464ZM36.456 43.464V43.964H36.6898L36.8397 43.7846L36.456 43.464ZM38.608 40.888L38.9917 41.2086L38.994 41.2059L38.608 40.888ZM38.896 40.752V41.252H38.9069L38.9177 41.2515L38.896 40.752ZM39.192 40.872L38.8157 41.2013L38.8157 41.2013L39.192 40.872ZM39.296 41.144L38.7968 41.1163L38.796 41.1301V41.144H39.296ZM39.184 41.408L38.8077 41.0787L38.805 41.0819L39.184 41.408ZM37.16 43.76L36.781 43.4339L36.5003 43.7601L36.7811 44.0863L37.16 43.76ZM39.392 46.352L39.0131 46.6783L39.0157 46.6813L39.392 46.352ZM39.512 46.624L39.0128 46.6517L39.0136 46.6671L39.0154 46.6824L39.512 46.624ZM39.392 46.896L39.0384 46.5424L39.392 46.896ZM39.088 47L39.1088 46.5004L39.0984 46.5H39.088V47ZM38.784 46.872L38.4048 47.1979L38.4077 47.2013L38.784 46.872ZM36.488 44.2L36.8672 43.8741L36.7176 43.7H36.488V44.2ZM35.632 44.2V43.7H35.132V44.2H35.632ZM35.512 46.88L35.1584 46.5264L35.1524 46.5325L35.1465 46.5388L35.512 46.88ZM35.216 46.5C35.2151 46.5 35.2257 46.5001 35.2419 46.5066C35.2584 46.5133 35.2692 46.5221 35.2736 46.5264L34.5664 47.2336C34.744 47.4111 34.9715 47.5 35.216 47.5V46.5ZM35.2736 46.5264C35.2779 46.5308 35.2867 46.5416 35.2934 46.5581C35.2999 46.5743 35.3 46.5849 35.3 46.584H34.3C34.3 46.8285 34.3889 47.056 34.5664 47.2336L35.2736 46.5264ZM35.3 46.584V41.168H34.3V46.584H35.3ZM35.3 41.168C35.3 41.1614 35.301 41.1711 35.2934 41.1899C35.2853 41.2098 35.2728 41.2267 35.2612 41.2375L34.5788 40.5065C34.3847 40.6876 34.3 40.9253 34.3 41.168H35.3ZM35.2736 41.2256C35.2692 41.2299 35.2584 41.2387 35.2419 41.2454C35.2257 41.2519 35.2151 41.252 35.216 41.252V40.252C34.9716 40.252 34.744 40.3409 34.5664 40.5184L35.2736 41.2256ZM35.216 41.252C35.2226 41.252 35.2129 41.253 35.1941 41.2454C35.1742 41.2373 35.1573 41.2248 35.1465 41.2132L35.8775 40.5308C35.6964 40.3367 35.4587 40.252 35.216 40.252V41.252ZM35.1708 41.2375C35.1592 41.2267 35.1467 41.2098 35.1386 41.1899C35.131 41.1711 35.132 41.1614 35.132 41.168H36.132C36.132 40.9253 36.0473 40.6876 35.8532 40.5065L35.1708 41.2375ZM35.132 41.168V43.464H36.132V41.168H35.132ZM35.632 43.964H36.456V42.964H35.632V43.964ZM36.8397 43.7846L38.9917 41.2086L38.2243 40.5674L36.0723 43.1434L36.8397 43.7846ZM38.994 41.2059C38.9895 41.2113 38.975 41.2261 38.9495 41.2381C38.924 41.2502 38.9033 41.252 38.896 41.252V40.252C38.6291 40.252 38.3916 40.3643 38.222 40.5701L38.994 41.2059ZM38.9177 41.2515C38.9183 41.2515 38.9007 41.2521 38.8741 41.2414C38.8464 41.2301 38.8264 41.2135 38.8157 41.2013L39.5683 40.5427C39.3846 40.3328 39.1342 40.2412 38.8743 40.2525L38.9177 41.2515ZM38.8157 41.2013C38.8206 41.2068 38.814 41.2009 38.807 41.1826C38.7994 41.1628 38.7955 41.1392 38.7968 41.1163L39.7952 41.1717C39.8091 40.9221 39.7125 40.7075 39.5683 40.5427L38.8157 41.2013ZM38.796 41.144C38.796 41.1186 38.8016 41.0971 38.8077 41.0827C38.8132 41.0698 38.8164 41.0688 38.8077 41.0787L39.5603 41.7373C39.694 41.5844 39.796 41.3839 39.796 41.144H38.796ZM38.805 41.0819L36.781 43.4339L37.539 44.0861L39.563 41.7341L38.805 41.0819ZM36.7811 44.0863L39.0131 46.6783L39.7709 46.0257L37.5389 43.4337L36.7811 44.0863ZM39.0157 46.6813C39.0244 46.6912 39.0237 46.693 39.0205 46.6858C39.019 46.6823 39.0172 46.6773 39.0156 46.671C39.0141 46.6647 39.0131 46.6581 39.0128 46.6517L40.0112 46.5963C39.9986 46.3697 39.9027 46.1764 39.7683 46.0227L39.0157 46.6813ZM39.0154 46.6824C39.0094 46.6316 39.0197 46.5873 39.0325 46.5582C39.0436 46.533 39.0523 46.5286 39.0384 46.5424L39.7456 47.2496C39.8983 47.0968 40.0436 46.863 40.0086 46.5656L39.0154 46.6824ZM39.0384 46.5424C39.0559 46.525 39.0777 46.5119 39.0982 46.5049C39.1165 46.4986 39.1227 46.501 39.1088 46.5004L39.0672 47.4996C39.3027 47.5094 39.5513 47.4438 39.7456 47.2496L39.0384 46.5424ZM39.088 46.5C39.0798 46.5 39.09 46.4988 39.11 46.5072C39.1315 46.5162 39.1493 46.5301 39.1603 46.5427L38.4077 47.2013C38.5902 47.4098 38.8365 47.5 39.088 47.5V46.5ZM39.1632 46.5461L36.8672 43.8741L36.1088 44.5259L38.4048 47.1979L39.1632 46.5461ZM36.488 43.7H35.632V44.7H36.488V43.7ZM35.132 44.2V46.584H36.132V44.2H35.132ZM35.132 46.584C35.132 46.5849 35.1321 46.5743 35.1386 46.5581C35.1453 46.5416 35.1541 46.5308 35.1584 46.5264L35.8656 47.2336C36.0431 47.056 36.132 46.8285 36.132 46.584H35.132ZM35.1465 46.5388C35.1573 46.5272 35.1742 46.5147 35.1941 46.5066C35.2129 46.499 35.2226 46.5 35.216 46.5V47.5C35.4587 47.5 35.6964 47.4153 35.8775 47.2212L35.1465 46.5388ZM40.4116 46.4L40.8686 46.6031L40.8728 46.5931L40.4116 46.4ZM42.6596 41.032L42.2 40.835L42.1984 40.8389L42.6596 41.032ZM43.4436 41.032L42.9748 41.2061L42.9784 41.2157L42.9824 41.2252L43.4436 41.032ZM45.6996 46.416L46.1651 46.2331L46.1607 46.2228L45.6996 46.416ZM45.6756 46.824L45.2484 46.564L45.2451 46.5696L45.6756 46.824ZM45.1076 46.936L44.823 47.3471L44.8407 47.3594L44.8595 47.3701L45.1076 46.936ZM44.9556 46.744L45.4198 46.5583L45.4189 46.5561L44.9556 46.744ZM43.0836 42.128L43.5469 41.9401L43.0894 40.812L42.6219 41.936L43.0836 42.128ZM41.1636 46.744L41.6217 46.9444L41.6252 46.936L41.1636 46.744ZM40.9956 46.936L40.7475 46.5019L40.7404 46.5059L40.7335 46.5102L40.9956 46.936ZM40.7796 46.5C40.7783 46.5 40.7984 46.5004 40.8252 46.5154C40.8519 46.5303 40.8616 46.5463 40.8596 46.543L40.0116 47.073C40.1817 47.3453 40.4556 47.5 40.7796 47.5V46.5ZM40.8596 46.543C40.8588 46.5417 40.8609 46.5449 40.8634 46.5524C40.866 46.5601 40.8681 46.5699 40.8687 46.5806C40.8701 46.604 40.8638 46.6136 40.8685 46.6031L39.9547 46.1969C39.8267 46.4848 39.839 46.7969 40.0116 47.073L40.8596 46.543ZM40.8728 46.5931L43.1208 41.2251L42.1984 40.8389L39.9504 46.2069L40.8728 46.5931ZM43.1191 41.229C43.1325 41.1977 43.1347 41.21 43.1082 41.2289C43.0954 41.238 43.0814 41.2446 43.0684 41.2485C43.0559 41.2522 43.0493 41.252 43.0516 41.252V40.252C42.8707 40.252 42.6878 40.3002 42.5269 40.4151C42.3698 40.5274 42.2666 40.6796 42.2 40.835L43.1191 41.229ZM43.0516 41.252C43.0591 41.252 43.0559 41.2529 43.0451 41.2498C43.0336 41.2465 43.0184 41.2399 43.0029 41.2289C42.9694 41.2049 42.9666 41.1838 42.9748 41.2061L43.9123 40.8579C43.8512 40.6935 43.7484 40.5325 43.5842 40.4151C43.4185 40.2968 43.2309 40.252 43.0516 40.252V41.252ZM42.9824 41.2252L45.2384 46.6092L46.1607 46.2228L43.9047 40.8388L42.9824 41.2252ZM45.2342 46.5988C45.2417 46.6179 45.2375 46.6167 45.2384 46.6006C45.2389 46.593 45.2404 46.5849 45.2428 46.5773C45.2452 46.5698 45.2477 46.5653 45.2485 46.564L46.1027 47.084C46.2689 46.8108 46.2731 46.5084 46.1649 46.2332L45.2342 46.5988ZM45.2451 46.5696C45.2486 46.5636 45.2557 46.5535 45.2673 46.5422C45.2792 46.5307 45.293 46.5207 45.3076 46.5131C45.3374 46.4974 45.3539 46.5 45.3396 46.5V47.5C45.6425 47.5 45.9331 47.371 46.106 47.0784L45.2451 46.5696ZM45.3396 46.5C45.3446 46.5 45.35 46.5008 45.3545 46.502C45.3589 46.5032 45.3593 46.504 45.3556 46.5019L44.8595 47.3701C45.0039 47.4526 45.1661 47.5 45.3396 47.5V46.5ZM45.3922 46.5249C45.3967 46.5281 45.4033 46.5337 45.4096 46.5416C45.4158 46.5495 45.4189 46.556 45.4198 46.5583L44.4913 46.9297C44.5589 47.0987 44.6711 47.2419 44.823 47.3471L45.3922 46.5249ZM45.4189 46.5561L43.5469 41.9401L42.6202 42.3159L44.4922 46.9319L45.4189 46.5561ZM42.6219 41.936L40.7019 46.552L41.6252 46.936L43.5452 42.32L42.6219 41.936ZM40.7055 46.5436C40.7054 46.5438 40.7085 46.5367 40.7173 46.5267C40.7263 46.5164 40.7371 46.5078 40.7475 46.5019L41.2436 47.3701C41.4195 47.2696 41.545 47.1195 41.6216 46.9444L40.7055 46.5436ZM40.7335 46.5102C40.7332 46.5104 40.738 46.5074 40.7475 46.5046C40.7574 46.5017 40.7685 46.5 40.7796 46.5V47.5C40.955 47.5 41.1168 47.4485 41.2576 47.3618L40.7335 46.5102ZM47.1791 46.88L46.8255 47.2336L47.1791 46.88ZM47.1791 40.872L47.5202 41.2375L47.5265 41.2316L47.5326 41.2256L47.1791 40.872ZM47.7711 40.872L47.4055 41.2132L47.4173 41.2258L47.4299 41.2375L47.7711 40.872ZM47.8911 43.464H47.3911V43.964H47.8911V43.464ZM49.1951 43.464V43.964H49.6489L49.6927 43.5123L49.1951 43.464ZM49.6671 42.008L49.2446 41.7406L49.2422 41.7445L49.6671 42.008ZM50.7151 41.024L50.4764 40.5846L50.4764 40.5846L50.7151 41.024ZM53.4351 40.912L53.2381 41.3716L53.246 41.3749L53.4351 40.912ZM54.4191 41.576L54.0589 41.9228L54.0622 41.9262L54.4191 41.576ZM55.0591 42.584L55.5259 42.4049L55.0591 42.584ZM55.0591 45.168L55.5259 45.3471L55.5267 45.3449L55.0591 45.168ZM54.4191 46.184L54.776 46.5342L54.7792 46.5308L54.4191 46.184ZM53.4351 46.848L53.6264 47.3099L53.6297 47.3086L53.4351 46.848ZM50.6911 46.72L50.4441 47.1548L50.4505 47.1583L50.6911 46.72ZM49.6431 45.704L49.2152 45.9628L49.2176 45.9666L49.6431 45.704ZM49.1871 44.2L49.6857 44.1627L49.6511 43.7H49.1871V44.2ZM47.8911 44.2V43.7H47.3911V44.2H47.8911ZM47.7711 46.88L47.4175 46.5264L47.4114 46.5325L47.4055 46.5388L47.7711 46.88ZM53.3711 46.008L53.6361 46.432L53.6378 46.4309L53.3711 46.008ZM54.1871 45.128L54.6277 45.3643L54.6291 45.3617L54.1871 45.128ZM54.1871 42.624L53.745 42.8577L53.7464 42.8603L54.1871 42.624ZM53.3711 41.744L53.1061 42.168L53.109 42.1698L53.3711 41.744ZM51.0351 41.744L50.7671 41.3219L50.764 41.3239L51.0351 41.744ZM50.2511 42.624L49.8064 42.3953L49.8051 42.3978L50.2511 42.624ZM50.2511 45.128L49.8038 45.3516L49.8078 45.3593L50.2511 45.128ZM51.0351 46.008L50.7592 46.4251L50.7671 46.4301L51.0351 46.008ZM47.4751 46.5C47.4742 46.5 47.4848 46.5001 47.5009 46.5066C47.5174 46.5133 47.5283 46.5221 47.5326 46.5264L46.8255 47.2336C47.0031 47.4111 47.2306 47.5 47.4751 47.5V46.5ZM47.5326 46.5264C47.5369 46.5308 47.5457 46.5416 47.5524 46.5581C47.559 46.5743 47.5591 46.5849 47.5591 46.584H46.5591C46.5591 46.8285 46.6479 47.056 46.8255 47.2336L47.5326 46.5264ZM47.5591 46.584V41.168H46.5591V46.584H47.5591ZM47.5591 41.168C47.5591 41.1614 47.56 41.1711 47.5524 41.1899C47.5443 41.2098 47.5319 41.2267 47.5202 41.2375L46.8379 40.5065C46.6438 40.6876 46.5591 40.9253 46.5591 41.168H47.5591ZM47.5326 41.2256C47.5283 41.2299 47.5174 41.2387 47.5009 41.2454C47.4848 41.2519 47.4742 41.252 47.4751 41.252V40.252C47.2306 40.252 47.0031 40.3409 46.8255 40.5184L47.5326 41.2256ZM47.4751 41.252C47.4817 41.252 47.4719 41.253 47.4532 41.2454C47.4332 41.2373 47.4164 41.2248 47.4055 41.2132L48.1366 40.5308C47.9554 40.3367 47.7178 40.252 47.4751 40.252V41.252ZM47.4299 41.2375C47.4183 41.2267 47.4058 41.2098 47.3977 41.1899C47.3901 41.1711 47.3911 41.1614 47.3911 41.168H48.3911C48.3911 40.9253 48.3063 40.6876 48.1122 40.5065L47.4299 41.2375ZM47.3911 41.168V43.464H48.3911V41.168H47.3911ZM47.8911 43.964H49.1951V42.964H47.8911V43.964ZM49.6927 43.5123C49.7395 43.0306 49.8755 42.6206 50.092 42.2715L49.2422 41.7445C48.936 42.2381 48.7573 42.7987 48.6974 43.4157L49.6927 43.5123ZM50.0896 42.2754C50.3113 41.925 50.5978 41.6567 50.9537 41.4634L50.4764 40.5846C49.9683 40.8606 49.5562 41.2483 49.2446 41.7406L50.0896 42.2754ZM50.9537 41.4634C51.3042 41.273 51.7111 41.172 52.1871 41.172V40.172C51.5643 40.172 50.9899 40.3057 50.4764 40.5846L50.9537 41.4634ZM52.1871 41.172C52.5868 41.172 52.9346 41.2415 53.2381 41.3716L53.632 40.4524C53.1889 40.2625 52.7047 40.172 52.1871 40.172V41.172ZM53.246 41.3749C53.5617 41.5038 53.831 41.6862 54.0589 41.9228L54.7792 41.2292C54.4524 40.8898 54.0658 40.6295 53.6241 40.4491L53.246 41.3749ZM54.0622 41.9262C54.289 42.1574 54.4661 42.4342 54.5922 42.7631L55.5259 42.4049C55.3534 41.9551 55.1038 41.56 54.776 41.2258L54.0622 41.9262ZM54.5922 42.7631C54.7171 43.0885 54.7831 43.4562 54.7831 43.872H55.7831C55.7831 43.3491 55.6997 42.8581 55.5259 42.4049L54.5922 42.7631ZM54.7831 43.872C54.7831 44.2876 54.7171 44.6589 54.5914 44.9911L55.5267 45.3449C55.6997 44.8877 55.7831 44.395 55.7831 43.872H54.7831ZM54.5922 44.9889C54.4658 45.3185 54.2878 45.5995 54.0589 45.8372L54.7792 46.5308C55.105 46.1925 55.3536 45.7962 55.5259 45.3471L54.5922 44.9889ZM54.0622 45.8338C53.8329 46.0675 53.5606 46.2521 53.2405 46.3874L53.6297 47.3086C54.0668 47.1239 54.4506 46.8658 54.776 46.5342L54.0622 45.8338ZM53.2437 46.3861C52.9387 46.5124 52.5889 46.58 52.1871 46.58V47.58C52.7026 47.58 53.1848 47.4929 53.6264 47.3099L53.2437 46.3861ZM52.1871 46.58C51.7007 46.58 51.2866 46.4765 50.9316 46.2817L50.4505 47.1583C50.9702 47.4435 51.5535 47.58 52.1871 47.58V46.58ZM50.938 46.2852C50.5807 46.0823 50.2921 45.8035 50.0685 45.4414L49.2176 45.9666C49.5274 46.4685 49.9375 46.867 50.4442 47.1548L50.938 46.2852ZM50.0709 45.4452C49.8554 45.0889 49.7233 44.6655 49.6857 44.1627L48.6885 44.2373C48.7362 44.8758 48.9081 45.4551 49.2153 45.9628L50.0709 45.4452ZM49.1871 43.7H47.8911V44.7H49.1871V43.7ZM47.3911 44.2V46.584H48.3911V44.2H47.3911ZM47.3911 46.584C47.3911 46.5849 47.3911 46.5743 47.3977 46.5581C47.4044 46.5416 47.4132 46.5308 47.4175 46.5264L48.1246 47.2336C48.3022 47.056 48.3911 46.8285 48.3911 46.584H47.3911ZM47.4055 46.5388C47.4164 46.5272 47.4332 46.5147 47.4532 46.5066C47.4719 46.499 47.4817 46.5 47.4751 46.5V47.5C47.7178 47.5 47.9554 47.4153 48.1366 47.2212L47.4055 46.5388ZM52.1871 46.828C52.7179 46.828 53.2065 46.7005 53.6361 46.432L53.1061 45.584C52.853 45.7422 52.5523 45.828 52.1871 45.828V46.828ZM53.6378 46.4309C54.059 46.1652 54.3903 45.807 54.6277 45.3643L53.7464 44.8917C53.5891 45.185 53.3764 45.4135 53.1043 45.5851L53.6378 46.4309ZM54.6291 45.3617C54.8682 44.9094 54.9831 44.4092 54.9831 43.872H53.9831C53.9831 44.2628 53.9006 44.5999 53.745 44.8943L54.6291 45.3617ZM54.9831 43.872C54.9831 43.3349 54.8682 42.8362 54.6277 42.3877L53.7464 42.8603C53.9006 43.1478 53.9831 43.4811 53.9831 43.872H54.9831ZM54.6291 42.3903C54.3917 41.9411 54.0588 41.5801 53.6331 41.3182L53.109 42.1698C53.3767 42.3345 53.5878 42.5602 53.745 42.8577L54.6291 42.3903ZM53.6361 41.32C53.2065 41.0515 52.7179 40.924 52.1871 40.924V41.924C52.5523 41.924 52.853 42.0098 53.1061 42.168L53.6361 41.32ZM52.1871 40.924C51.6686 40.924 51.19 41.0533 50.7671 41.3219L51.3031 42.1661C51.5521 42.008 51.8415 41.924 52.1871 41.924V40.924ZM50.764 41.3239C50.3548 41.5879 50.0357 41.9495 49.8064 42.3953L50.6957 42.8527C50.8504 42.5519 51.054 42.3268 51.3061 42.1641L50.764 41.3239ZM49.8051 42.3978C49.5787 42.8442 49.4711 43.3393 49.4711 43.872H50.4711C50.4711 43.4767 50.5501 43.1398 50.697 42.8502L49.8051 42.3978ZM49.4711 43.872C49.4711 44.4048 49.5787 44.9014 49.8038 45.3516L50.6983 44.9044C50.55 44.6079 50.4711 44.2672 50.4711 43.872H49.4711ZM49.8078 45.3593C50.037 45.7987 50.3546 46.1574 50.7593 46.4251L51.3109 45.5909C51.0542 45.4212 50.8491 45.1933 50.6944 44.8967L49.8078 45.3593ZM50.7671 46.4301C51.19 46.6987 51.6686 46.828 52.1871 46.828V45.828C51.8415 45.828 51.5521 45.744 51.3031 45.5859L50.7671 46.4301ZM57.2703 44.248L56.8862 44.5681L56.8901 44.5727L57.2703 44.248ZM56.7903 40.872L57.1315 41.2375L57.1378 41.2316L57.1439 41.2256L56.7903 40.872ZM57.3823 40.872L57.0168 41.2132L57.0285 41.2258L57.0412 41.2375L57.3823 40.872ZM57.6463 43.344L57.171 43.4996L57.1747 43.51L57.6463 43.344ZM58.1423 44.008L57.8627 44.4226L57.8672 44.4255L58.1423 44.008ZM59.9583 44.12L60.1103 44.5963V44.5963L59.9583 44.12ZM60.5423 43.792L60.8959 44.1456V44.1456L60.5423 43.792ZM60.8783 40.872L61.2195 41.2375L61.2258 41.2316L61.2319 41.2256L60.8783 40.872ZM61.4703 40.872L61.1048 41.2132L61.1165 41.2258L61.1292 41.2375L61.4703 40.872ZM61.4703 46.88L61.1168 46.5264L61.1107 46.5325L61.1048 46.5388L61.4703 46.88ZM60.7583 44.312H61.2583V43.0311L60.3905 43.9733L60.7583 44.312ZM60.0303 44.792L60.2087 45.2591L60.2131 45.2574L60.0303 44.792ZM59.0383 44.46C58.3733 44.46 57.9387 44.2608 57.6505 43.9233L56.8901 44.5727C57.4126 45.1846 58.1567 45.46 59.0383 45.46V44.46ZM57.6544 43.9279C57.3501 43.5627 57.1703 43.0376 57.1703 42.296H56.1703C56.1703 43.1971 56.3905 43.9733 56.8862 44.5681L57.6544 43.9279ZM57.1703 42.296V41.168H56.1703V42.296H57.1703ZM57.1703 41.168C57.1703 41.1614 57.1713 41.1711 57.1637 41.1899C57.1556 41.2098 57.1431 41.2267 57.1315 41.2375L56.4492 40.5065C56.255 40.6876 56.1703 40.9253 56.1703 41.168H57.1703ZM57.1439 41.2256C57.1395 41.2299 57.1287 41.2387 57.1122 41.2454C57.096 41.2519 57.0855 41.252 57.0863 41.252V40.252C56.8419 40.252 56.6143 40.3409 56.4368 40.5184L57.1439 41.2256ZM57.0863 41.252C57.0929 41.252 57.0832 41.253 57.0645 41.2454C57.0445 41.2373 57.0277 41.2248 57.0168 41.2132L57.7478 40.5308C57.5667 40.3367 57.329 40.252 57.0863 40.252V41.252ZM57.0412 41.2375C57.0295 41.2267 57.017 41.2098 57.0089 41.1899C57.0014 41.1711 57.0023 41.1614 57.0023 41.168H58.0023C58.0023 40.9253 57.9176 40.6876 57.7235 40.5065L57.0412 41.2375ZM57.0023 41.168V42.296H58.0023V41.168H57.0023ZM57.0023 42.296C57.0023 42.7386 57.0545 43.1431 57.1711 43.4995L58.1215 43.1885C58.0462 42.9583 58.0023 42.6641 58.0023 42.296H57.0023ZM57.1747 43.51C57.3078 43.8882 57.5351 44.2015 57.8627 44.4225L58.4219 43.5935C58.2909 43.5051 58.1875 43.3758 58.118 43.178L57.1747 43.51ZM57.8672 44.4255C58.2103 44.6516 58.6318 44.74 59.0863 44.74V43.74C58.7515 43.74 58.5437 43.6737 58.4175 43.5905L57.8672 44.4255ZM59.0863 44.74C59.4559 44.74 59.7998 44.6954 60.1103 44.5963L59.8063 43.6437C59.6155 43.7046 59.378 43.74 59.0863 43.74V44.74ZM60.1103 44.5963C60.4122 44.5 60.6849 44.3566 60.8959 44.1456L60.1888 43.4384C60.1224 43.5048 60.0058 43.58 59.8063 43.6437L60.1103 44.5963ZM60.8959 44.1456C61.1242 43.9172 61.2583 43.628 61.2583 43.296H60.2583C60.2583 43.3373 60.2484 43.3788 60.1888 43.4384L60.8959 44.1456ZM61.2583 43.296V41.168H60.2583V43.296H61.2583ZM61.2583 41.168C61.2583 41.1614 61.2593 41.1711 61.2517 41.1899C61.2436 41.2098 61.2311 41.2267 61.2195 41.2375L60.5372 40.5065C60.343 40.6876 60.2583 40.9253 60.2583 41.168H61.2583ZM61.2319 41.2256C61.2275 41.2299 61.2167 41.2387 61.2002 41.2454C61.184 41.2519 61.1735 41.252 61.1743 41.252V40.252C60.9299 40.252 60.7023 40.3409 60.5248 40.5184L61.2319 41.2256ZM61.1743 41.252C61.1809 41.252 61.1712 41.253 61.1525 41.2454C61.1325 41.2373 61.1157 41.2248 61.1048 41.2132L61.8358 40.5308C61.6547 40.3367 61.417 40.252 61.1743 40.252V41.252ZM61.1292 41.2375C61.1175 41.2267 61.105 41.2098 61.0969 41.1899C61.0894 41.1711 61.0903 41.1614 61.0903 41.168H62.0903C62.0903 40.9253 62.0056 40.6876 61.8115 40.5065L61.1292 41.2375ZM61.0903 41.168V46.584H62.0903V41.168H61.0903ZM61.0903 46.584C61.0903 46.5849 61.0904 46.5743 61.0969 46.5581C61.1036 46.5416 61.1124 46.5308 61.1168 46.5264L61.8239 47.2336C62.0014 47.056 62.0903 46.8285 62.0903 46.584H61.0903ZM61.1048 46.5388C61.1157 46.5272 61.1325 46.5147 61.1525 46.5066C61.1712 46.499 61.1809 46.5 61.1743 46.5V47.5C61.417 47.5 61.6547 47.4153 61.8358 47.2212L61.1048 46.5388ZM61.1743 46.5C61.1735 46.5 61.184 46.5001 61.2002 46.5066C61.2167 46.5133 61.2275 46.5221 61.2319 46.5264L60.5248 47.2336C60.7023 47.4111 60.9299 47.5 61.1743 47.5V46.5ZM61.2319 46.5264C61.2362 46.5308 61.245 46.5416 61.2517 46.5581C61.2582 46.5743 61.2583 46.5849 61.2583 46.584H60.2583C60.2583 46.8285 60.3472 47.056 60.5248 47.2336L61.2319 46.5264ZM61.2583 46.584V44.312H60.2583V46.584H61.2583ZM60.3905 43.9733C60.2629 44.1118 60.0873 44.2324 59.8475 44.3266L60.2131 45.2574C60.5707 45.1169 60.8804 44.9175 61.1261 44.6507L60.3905 43.9733ZM59.852 44.3249C59.6245 44.4118 59.3556 44.46 59.0383 44.46V45.46C59.457 45.46 59.8495 45.3962 60.2087 45.2591L59.852 44.3249ZM63.6805 46.88L64.0225 46.5152L63.6805 46.88ZM63.6805 40.872L64.0098 41.2483L64.0162 41.2426L64.0225 41.2368L63.6805 40.872ZM64.2725 40.872L63.8947 41.1995L63.9063 41.2129L63.9189 41.2256L64.2725 40.872ZM64.3845 45.704H63.8845V47.1294L64.7749 46.0163L64.3845 45.704ZM68.2245 40.904L67.8419 40.5818L67.8341 40.5917L68.2245 40.904ZM68.8405 40.872L68.475 41.2132L68.4867 41.2258L68.4993 41.2375L68.8405 40.872ZM68.8405 46.88L68.4869 46.5264L68.4809 46.5325L68.475 46.5388L68.8405 46.88ZM68.1285 42.056H68.6285V40.626L67.7374 41.7444L68.1285 42.056ZM64.3045 46.856L64.6808 47.1853L64.6884 47.1766L64.6956 47.1676L64.3045 46.856ZM64.1605 46.96L64.3674 47.4152H64.3674L64.1605 46.96ZM63.9845 46.5C63.9838 46.5 63.9919 46.5001 64.0041 46.5049C64.0163 46.5097 64.0226 46.5153 64.0225 46.5152L63.3385 47.2448C63.5169 47.412 63.7406 47.5 63.9845 47.5V46.5ZM64.0225 46.5152C64.0253 46.5179 64.0353 46.5287 64.0434 46.5475C64.0516 46.5664 64.0525 46.5807 64.0525 46.584H63.0525C63.0525 46.839 63.152 47.0699 63.3385 47.2448L64.0225 46.5152ZM64.0525 46.584V41.168H63.0525V46.584H64.0525ZM64.0525 41.168C64.0525 41.1653 64.0528 41.1789 64.0434 41.2005C64.0337 41.223 64.0198 41.2395 64.0098 41.2483L63.3512 40.4957C63.1478 40.6738 63.0525 40.9145 63.0525 41.168H64.0525ZM64.0225 41.2368C64.0226 41.2367 64.0163 41.2423 64.0041 41.2471C63.9919 41.2519 63.9838 41.252 63.9845 41.252V40.252C63.7406 40.252 63.5169 40.34 63.3385 40.5072L64.0225 41.2368ZM63.9845 41.252C63.9915 41.252 63.979 41.2531 63.9562 41.2435C63.9315 41.2332 63.9097 41.2168 63.8947 41.1995L64.6503 40.5445C64.4705 40.3371 64.2267 40.252 63.9845 40.252V41.252ZM63.9189 41.2256C63.9062 41.2128 63.8953 41.196 63.8889 41.1789C63.883 41.1633 63.8845 41.1574 63.8845 41.168H64.8845C64.8845 40.9359 64.8097 40.7021 64.6261 40.5184L63.9189 41.2256ZM63.8845 41.168V45.704H64.8845V41.168H63.8845ZM64.7749 46.0163L68.6149 41.2163L67.8341 40.5917L63.9941 45.3917L64.7749 46.0163ZM68.607 41.2261C68.6092 41.2234 68.6018 41.2327 68.583 41.2416C68.5638 41.2508 68.5484 41.252 68.5445 41.252V40.252C68.2632 40.252 68.0186 40.3723 67.842 40.5819L68.607 41.2261ZM68.5445 41.252C68.5511 41.252 68.5414 41.253 68.5226 41.2454C68.5027 41.2373 68.4858 41.2248 68.475 41.2132L69.206 40.5308C69.0249 40.3367 68.7872 40.252 68.5445 40.252V41.252ZM68.4993 41.2375C68.4877 41.2267 68.4752 41.2098 68.4671 41.1899C68.4595 41.1711 68.4605 41.1614 68.4605 41.168H69.4605C69.4605 40.9253 69.3758 40.6876 69.1817 40.5065L68.4993 41.2375ZM68.4605 41.168V46.584H69.4605V41.168H68.4605ZM68.4605 46.584C68.4605 46.5849 68.4606 46.5743 68.4671 46.5581C68.4738 46.5416 68.4826 46.5308 68.4869 46.5264L69.1941 47.2336C69.3716 47.056 69.4605 46.8285 69.4605 46.584H68.4605ZM68.475 46.5388C68.4858 46.5272 68.5027 46.5147 68.5226 46.5066C68.5414 46.499 68.5511 46.5 68.5445 46.5V47.5C68.7872 47.5 69.0249 47.4153 69.206 47.2212L68.475 46.5388ZM68.5445 46.5C68.5436 46.5 68.5542 46.5001 68.5704 46.5066C68.5869 46.5133 68.5977 46.5221 68.6021 46.5264L67.8949 47.2336C68.0725 47.4111 68.3 47.5 68.5445 47.5V46.5ZM68.6021 46.5264C68.6064 46.5308 68.6152 46.5416 68.6219 46.5581C68.6284 46.5743 68.6285 46.5849 68.6285 46.584H67.6285C67.6285 46.8285 67.7174 47.056 67.8949 47.2336L68.6021 46.5264ZM68.6285 46.584V42.056H67.6285V46.584H68.6285ZM67.7374 41.7444L63.9134 46.5444L64.6956 47.1676L68.5196 42.3676L67.7374 41.7444ZM63.9282 46.5267C63.9355 46.5184 63.9425 46.5125 63.9478 46.5087C63.9529 46.505 63.9554 46.504 63.9536 46.5048L64.3674 47.4152C64.482 47.3631 64.5906 47.2883 64.6808 47.1853L63.9282 46.5267ZM63.9536 46.5048C63.9529 46.5051 63.9557 46.5038 63.9617 46.5024C63.9678 46.501 63.9756 46.5 63.9845 46.5V47.5C64.1213 47.5 64.2502 47.4684 64.3674 47.4152L63.9536 46.5048ZM75.2081 46.84L75.0056 47.2972L75.0135 47.3006L75.2081 46.84ZM74.2241 46.16L73.8607 46.5036L73.8672 46.5102L74.2241 46.16ZM73.5681 45.136L73.1034 45.3206L73.1056 45.3261L73.5681 45.136ZM73.5681 42.624L73.1056 42.4339L73.1043 42.4372L73.5681 42.624ZM74.2241 41.608L73.864 41.2611L73.8639 41.2612L74.2241 41.608ZM75.2081 40.92L75.0056 40.4628V40.4628L75.2081 40.92ZM77.4801 40.832L77.3092 41.3019L77.3119 41.3029L77.4801 40.832ZM78.3761 41.36L78.6962 40.9759L78.6934 40.9736L78.3761 41.36ZM78.4241 41.944L78.7632 42.3114L78.7643 42.3104L78.4241 41.944ZM78.1681 42.056L78.1943 42.5553L78.2074 42.5546L78.2204 42.5533L78.1681 42.056ZM77.8721 41.952L77.545 42.3302L77.5548 42.3387L77.5651 42.3467L77.8721 41.952ZM77.2561 41.56L77.0563 42.0184L77.0605 42.0202L77.2561 41.56ZM74.8001 42.144L74.438 41.7991L74.4337 41.8038L74.8001 42.144ZM74.3121 42.928L74.7763 43.1137L74.7774 43.1108L74.3121 42.928ZM74.3121 44.832L73.8467 45.0148L73.8478 45.0177L74.3121 44.832ZM74.8001 45.608L74.4336 45.9483L74.438 45.9528L74.8001 45.608ZM75.5361 46.136L75.3265 46.59L75.3338 46.5933L75.5361 46.136ZM77.1921 46.184L77.3688 46.6518L77.3743 46.6496L77.1921 46.184ZM77.8961 45.792L77.6033 45.3866L77.5991 45.3897L77.8961 45.792ZM78.1761 45.704L78.1176 46.2006L78.1329 46.2024L78.1483 46.2032L78.1761 45.704ZM78.4161 45.816L78.0487 46.1551L78.0554 46.1625L78.0625 46.1696L78.4161 45.816ZM78.3841 46.384L78.6977 46.7734L78.7186 46.7565L78.7376 46.7376L78.3841 46.384ZM76.4241 46.58C76.0555 46.58 75.7166 46.5121 75.4027 46.3794L75.0135 47.3006C75.4568 47.4879 75.9287 47.58 76.4241 47.58V46.58ZM75.4105 46.3828C75.0942 46.2428 74.8188 46.0521 74.5809 45.8098L73.8672 46.5102C74.1947 46.8439 74.5752 47.1066 75.0056 47.2972L75.4105 46.3828ZM74.5874 45.8165C74.354 45.5697 74.1682 45.2809 74.0305 44.9459L73.1056 45.3261C73.2879 45.7697 73.5394 46.1637 73.8607 46.5035L74.5874 45.8165ZM74.0327 44.9514C73.9033 44.6255 73.8361 44.2673 73.8361 43.872H72.8361C72.8361 44.3833 72.9235 44.8679 73.1034 45.3206L74.0327 44.9514ZM73.8361 43.872C73.8361 43.4827 73.903 43.1307 74.0319 42.8108L73.1043 42.4372C72.9238 42.8853 72.8361 43.3653 72.8361 43.872H73.8361ZM74.0305 42.8141C74.1679 42.4798 74.3528 42.1951 74.5842 41.9548L73.8639 41.2612C73.5406 41.5969 73.2882 41.9895 73.1056 42.4339L74.0305 42.8141ZM74.5841 41.9549C74.8218 41.7083 75.0962 41.5164 75.4105 41.3772L75.0056 40.4628C74.5732 40.6543 74.1917 40.921 73.864 41.2611L74.5841 41.9549ZM75.4105 41.3772C75.7156 41.242 76.0514 41.172 76.4241 41.172V40.172C75.922 40.172 75.4471 40.2673 75.0056 40.4628L75.4105 41.3772ZM76.4241 41.172C76.7938 41.172 77.0849 41.2203 77.3092 41.3019L77.6509 40.3621C77.2886 40.2303 76.8756 40.172 76.4241 40.172V41.172ZM77.3119 41.3029C77.5459 41.3865 77.7951 41.5298 78.0587 41.7464L78.6934 40.9736C78.3597 40.6995 78.0115 40.4909 77.6482 40.3611L77.3119 41.3029ZM78.056 41.7441C78.0709 41.7565 78.0753 41.7621 78.0736 41.7601C78.0725 41.7588 78.0692 41.7547 78.0646 41.7476C78.06 41.7405 78.0536 41.7297 78.0472 41.7151L78.961 41.3089C78.8955 41.1616 78.7882 41.0526 78.6962 40.9759L78.056 41.7441ZM78.0472 41.7151C78.0397 41.6982 78.037 41.6861 78.0361 41.6814C78.0353 41.677 78.0361 41.6786 78.0361 41.688H79.0361C79.0361 41.57 79.0183 41.4378 78.961 41.3089L78.0472 41.7151ZM78.0361 41.688C78.0361 41.6758 78.0386 41.6535 78.05 41.6276C78.0613 41.6017 78.0757 41.5852 78.0838 41.5776L78.7643 42.3104C78.9402 42.1471 79.0361 41.9292 79.0361 41.688H78.0361ZM78.0849 41.5766C78.0906 41.5714 78.0987 41.5658 78.1077 41.5619C78.1162 41.5582 78.1201 41.5583 78.1157 41.5587L78.2204 42.5533C78.4198 42.5323 78.6083 42.4544 78.7632 42.3114L78.0849 41.5766ZM78.1418 41.5567C78.1493 41.5563 78.1573 41.5566 78.1651 41.5578C78.1729 41.5589 78.1793 41.5607 78.1838 41.5623C78.1929 41.5655 78.1912 41.5668 78.179 41.5573L77.5651 42.3467C77.7362 42.4798 77.9501 42.5682 78.1943 42.5553L78.1418 41.5567ZM78.1991 41.5738C77.9674 41.3734 77.7184 41.2132 77.4516 41.0998L77.0605 42.0202C77.2204 42.0881 77.3821 42.1893 77.545 42.3302L78.1991 41.5738ZM77.4559 41.1017C77.1605 40.9729 76.8068 40.924 76.4241 40.924V41.924C76.7347 41.924 76.9356 41.9658 77.0563 42.0183L77.4559 41.1017ZM76.4241 40.924C76.0393 40.924 75.6716 41.0028 75.3265 41.162L75.7456 42.07C75.9552 41.9732 76.1795 41.924 76.4241 41.924V40.924ZM75.3265 41.162C74.9912 41.3168 74.6943 41.5301 74.438 41.7992L75.1621 42.4888C75.3325 42.3099 75.5263 42.1712 75.7456 42.07L75.3265 41.162ZM74.4337 41.8038C74.181 42.0758 73.9857 42.3912 73.8467 42.7452L74.7774 43.1108C74.8731 42.8674 75.0031 42.6602 75.1665 42.4842L74.4337 41.8038ZM73.8478 42.7423C73.7054 43.0984 73.6361 43.4765 73.6361 43.872H74.6361C74.6361 43.5955 74.6841 43.3443 74.7763 43.1137L73.8478 42.7423ZM73.6361 43.872C73.6361 44.2719 73.705 44.6543 73.8467 45.0148L74.7774 44.6492C74.6844 44.4124 74.6361 44.1548 74.6361 43.872H73.6361ZM73.8478 45.0177C73.9872 45.3662 74.1824 45.6777 74.4337 45.9482L75.1665 45.2678C75.0017 45.0903 74.8716 44.8845 74.7763 44.6463L73.8478 45.0177ZM74.438 45.9528C74.6943 46.2219 74.9912 46.4352 75.3265 46.59L75.7456 45.682C75.5263 45.5808 75.3325 45.4421 75.1621 45.2632L74.438 45.9528ZM75.3338 46.5933C75.6773 46.7452 76.0424 46.82 76.4241 46.82V45.82C76.1764 45.82 75.9495 45.7722 75.7383 45.6787L75.3338 46.5933ZM76.4241 46.82C76.7528 46.82 77.069 46.765 77.3688 46.6517L77.0154 45.7163C76.8352 45.7843 76.6394 45.82 76.4241 45.82V46.82ZM77.3743 46.6496C77.6627 46.5368 77.9357 46.3842 78.193 46.1943L77.5991 45.3897C77.4084 45.5305 77.2121 45.6392 77.0099 45.7184L77.3743 46.6496ZM78.1888 46.1973C78.2022 46.1877 78.2019 46.1906 78.188 46.195C78.1723 46.1999 78.1473 46.2041 78.1176 46.2006L78.2345 45.2074C77.986 45.1782 77.7698 45.2665 77.6033 45.3867L78.1888 46.1973ZM78.1483 46.2032C78.1384 46.2027 78.1193 46.1997 78.0966 46.1891C78.0738 46.1784 78.0577 46.1649 78.0487 46.1551L78.7835 45.4769C78.6295 45.3101 78.4268 45.2172 78.2038 45.2048L78.1483 46.2032ZM78.0625 46.1696C78.0385 46.1455 78.0238 46.119 78.0166 46.0984C78.0101 46.08 78.0121 46.074 78.0121 46.088H79.0121C79.0121 45.8791 78.9529 45.6457 78.7696 45.4624L78.0625 46.1696ZM78.0121 46.088C78.0121 46.0787 78.0142 46.0635 78.0211 46.0475C78.0277 46.0323 78.034 46.0269 78.0305 46.0304L78.7376 46.7376C78.9087 46.5665 79.0121 46.3435 79.0121 46.088H78.0121ZM78.0704 45.9946C77.5821 46.388 77.0391 46.58 76.4241 46.58V47.58C77.2704 47.58 78.034 47.308 78.6977 46.7734L78.0704 45.9946ZM80.3228 46.88L79.9693 47.2336L80.3228 46.88ZM80.3228 40.872L80.664 41.2375L80.6703 41.2316L80.6764 41.2256L80.3228 40.872ZM83.2828 41.016L83.0355 41.4506H83.0356L83.2828 41.016ZM84.0028 41.752L83.5632 41.9904L83.5682 41.9993L84.0028 41.752ZM84.0028 43.864L83.5701 43.6135L83.5668 43.6192L84.0028 43.864ZM83.2828 44.576L83.5244 45.0138L83.2828 44.576ZM81.0348 44.832V44.332H80.5348V44.832H81.0348ZM80.9148 46.88L80.5613 46.5264L80.5552 46.5325L80.5493 46.5388L80.9148 46.88ZM81.0348 44.064H80.5348V44.564H81.0348V44.064ZM83.1148 43.72L83.4643 44.0776L83.4684 44.0736L83.1148 43.72ZM83.3068 42.152L82.8669 42.3898L82.8697 42.3948L83.3068 42.152ZM81.0348 41.52V41.02H80.5348V41.52H81.0348ZM80.6188 46.5C80.618 46.5 80.6285 46.5001 80.6447 46.5066C80.6612 46.5133 80.672 46.5221 80.6764 46.5264L79.9693 47.2336C80.1468 47.4111 80.3744 47.5 80.6188 47.5V46.5ZM80.6764 46.5264C80.6807 46.5308 80.6895 46.5416 80.6962 46.5581C80.7027 46.5743 80.7028 46.5849 80.7028 46.584H79.7028C79.7028 46.8285 79.7917 47.056 79.9693 47.2336L80.6764 46.5264ZM80.7028 46.584V41.168H79.7028V46.584H80.7028ZM80.7028 41.168C80.7028 41.1614 80.7038 41.1711 80.6962 41.1899C80.6881 41.2098 80.6756 41.2267 80.664 41.2375L79.9817 40.5065C79.7875 40.6876 79.7028 40.9253 79.7028 41.168H80.7028ZM80.6764 41.2256C80.672 41.2299 80.6612 41.2387 80.6447 41.2454C80.6285 41.2519 80.618 41.252 80.6188 41.252V40.252C80.3744 40.252 80.1468 40.3409 79.9693 40.5184L80.6764 41.2256ZM80.6188 41.252H82.2188V40.252H80.6188V41.252ZM82.2188 41.252C82.5431 41.252 82.8106 41.3226 83.0355 41.4506L83.5301 40.5814C83.1364 40.3574 82.6946 40.252 82.2188 40.252V41.252ZM83.0356 41.4506C83.2632 41.5801 83.4369 41.7573 83.5633 41.9904L84.4423 41.5136C84.2274 41.1174 83.9211 40.8039 83.5301 40.5814L83.0356 41.4506ZM83.5682 41.9993C83.6957 42.2233 83.7668 42.4931 83.7668 42.824H84.7668C84.7668 42.3442 84.6619 41.8994 84.4374 41.5047L83.5682 41.9993ZM83.7668 42.824C83.7668 43.1351 83.6974 43.3936 83.5701 43.6135L84.4355 44.1145C84.6603 43.7264 84.7668 43.2915 84.7668 42.824H83.7668ZM83.5668 43.6192C83.4424 43.8409 83.2702 44.0119 83.0413 44.1382L83.5244 45.0138C83.9141 44.7988 84.2219 44.4951 84.4388 44.1088L83.5668 43.6192ZM83.0413 44.1382C82.8152 44.2629 82.5457 44.332 82.2188 44.332V45.332C82.692 45.332 83.1317 45.2304 83.5244 45.0138L83.0413 44.1382ZM82.2188 44.332H81.0348V45.332H82.2188V44.332ZM80.5348 44.832V46.584H81.5348V44.832H80.5348ZM80.5348 46.584C80.5348 46.5849 80.5349 46.5743 80.5414 46.5581C80.5481 46.5416 80.5569 46.5308 80.5613 46.5264L81.2684 47.2336C81.4459 47.056 81.5348 46.8285 81.5348 46.584H80.5348ZM80.5493 46.5388C80.5602 46.5272 80.577 46.5147 80.597 46.5066C80.6157 46.499 80.6255 46.5 80.6188 46.5V47.5C80.8615 47.5 81.0992 47.4153 81.2803 47.2212L80.5493 46.5388ZM81.0348 44.564H82.2188V43.564H81.0348V44.564ZM82.2188 44.564C82.6971 44.564 83.126 44.4082 83.4643 44.0776L82.7653 43.3624C82.6343 43.4905 82.4659 43.564 82.2188 43.564V44.564ZM83.4684 44.0736C83.806 43.736 83.9668 43.3057 83.9668 42.824H82.9668C82.9668 43.0676 82.893 43.2347 82.7613 43.3664L83.4684 44.0736ZM83.9668 42.824C83.9668 42.4972 83.8982 42.1869 83.7439 41.9092L82.8697 42.3948C82.9288 42.5011 82.9668 42.6388 82.9668 42.824H83.9668ZM83.7467 41.9142C83.5987 41.6405 83.39 41.4188 83.1241 41.2593L82.6096 42.1167C82.7169 42.1812 82.8016 42.2688 82.867 42.3898L83.7467 41.9142ZM83.1241 41.2593C82.8502 41.0949 82.543 41.02 82.2188 41.02V42.02C82.3853 42.02 82.5101 42.0571 82.6096 42.1167L83.1241 41.2593ZM82.2188 41.02H81.0348V42.02H82.2188V41.02ZM80.5348 41.52V44.064H81.5348V41.52H80.5348ZM87.1472 46.848L86.9571 47.3105L86.9626 47.3127L87.1472 46.848ZM86.1392 46.184L85.779 46.5309L85.7856 46.5376L86.1392 46.184ZM85.4912 45.168L85.0257 45.3504L85.0265 45.3526L85.4912 45.168ZM85.4912 42.584L85.0265 42.3994V42.3994L85.4912 42.584ZM86.1392 41.576L85.7823 41.2258L85.7823 41.2258L86.1392 41.576ZM87.1472 40.912L87.3318 41.3767L87.3372 41.3745L87.1472 40.912ZM89.7152 40.912L89.5229 41.3736L89.5306 41.3767L89.7152 40.912ZM90.7232 41.576L90.3663 41.9262L90.3696 41.9296L90.7232 41.576ZM91.3792 42.584L91.8439 42.3994V42.3994L91.3792 42.584ZM91.3792 45.168L91.8439 45.3526L91.8447 45.3504L91.3792 45.168ZM90.7232 46.184L91.0768 46.5376L91.08 46.5342L90.7232 46.184ZM89.7152 46.848L89.902 47.3118L89.9052 47.3105L89.7152 46.848ZM89.6672 46.008L89.9235 46.4373L89.9282 46.4345L89.6672 46.008ZM90.5072 45.128L90.9452 45.3692L90.9466 45.3665L90.5072 45.128ZM90.5072 42.624L90.0678 42.8625L90.0692 42.8652L90.5072 42.624ZM89.6672 41.744L89.4109 42.1733V42.1733L89.6672 41.744ZM87.2032 41.744L87.4595 42.1733H87.4595L87.2032 41.744ZM86.3632 42.624L86.8012 42.8652L86.8026 42.8625L86.3632 42.624ZM86.3632 45.128L85.9238 45.3665L85.9252 45.3692L86.3632 45.128ZM87.2032 46.008L86.9422 46.4345L86.9469 46.4373L87.2032 46.008ZM88.4352 46.58C88.0215 46.58 87.6557 46.512 87.3318 46.3833L86.9626 47.3127C87.4173 47.4933 87.9102 47.58 88.4352 47.58V46.58ZM87.3372 46.3855C87.0058 46.2493 86.7262 46.0639 86.4927 45.8304L85.7856 46.5376C86.1175 46.8694 86.5099 47.1267 86.9571 47.3105L87.3372 46.3855ZM86.4993 45.8372C86.2692 45.5982 86.0877 45.3153 85.9559 44.9834L85.0265 45.3526C85.204 45.7993 85.4545 46.1938 85.779 46.5308L86.4993 45.8372ZM85.9567 44.9856C85.8271 44.6549 85.7592 44.2856 85.7592 43.872H84.7592C84.7592 44.3971 84.8459 44.8917 85.0257 45.3504L85.9567 44.9856ZM85.7592 43.872C85.7592 43.4583 85.8272 43.0925 85.9559 42.7686L85.0265 42.3994C84.8459 42.8541 84.7592 43.347 84.7592 43.872H85.7592ZM85.9559 42.7686C86.0874 42.4374 86.268 42.1586 86.4961 41.9262L85.7823 41.2258C85.4557 41.5587 85.2043 41.9519 85.0265 42.3994L85.9559 42.7686ZM86.496 41.9262C86.728 41.6899 87.0047 41.5066 87.3318 41.3767L86.9626 40.4473C86.511 40.6267 86.1157 40.8861 85.7823 41.2258L86.496 41.9262ZM87.3372 41.3745C87.6597 41.2419 88.0236 41.172 88.4352 41.172V40.172C87.9082 40.172 87.4133 40.2621 86.9571 40.4495L87.3372 41.3745ZM88.4352 41.172C88.8469 41.172 89.2071 41.242 89.5229 41.3735L89.9075 40.4505C89.4552 40.262 88.9621 40.172 88.4352 40.172V41.172ZM89.5306 41.3767C89.8577 41.5066 90.1344 41.6899 90.3663 41.9262L91.08 41.2258C90.7467 40.8861 90.3514 40.6267 89.8998 40.4473L89.5306 41.3767ZM90.3696 41.9296C90.6018 42.1618 90.7838 42.4395 90.9145 42.7686L91.8439 42.3994C91.6653 41.9499 91.4099 41.5556 91.0767 41.2224L90.3696 41.9296ZM90.9145 42.7686C91.0432 43.0925 91.1112 43.4583 91.1112 43.872H92.1112C92.1112 43.347 92.0245 42.8541 91.8439 42.3994L90.9145 42.7686ZM91.1112 43.872C91.1112 44.2856 91.0432 44.6549 90.9137 44.9856L91.8447 45.3504C92.0245 44.8917 92.1112 44.3971 92.1112 43.872H91.1112ZM90.9145 44.9834C90.7835 45.3133 90.6006 45.5951 90.3663 45.8338L91.08 46.5342C91.4111 46.1969 91.6656 45.8014 91.8439 45.3526L90.9145 44.9834ZM90.3696 45.8304C90.1362 46.0639 89.8566 46.2493 89.5251 46.3855L89.9052 47.3105C90.3525 47.1267 90.7449 46.8694 91.0767 46.5376L90.3696 45.8304ZM89.5284 46.3842C89.2112 46.512 88.849 46.58 88.4352 46.58V47.58C88.96 47.58 89.4512 47.4934 89.902 47.3118L89.5284 46.3842ZM88.4352 46.828C88.9788 46.828 89.48 46.7021 89.9235 46.4373L89.4109 45.5787C89.1397 45.7406 88.8196 45.828 88.4352 45.828V46.828ZM89.9282 46.4345C90.3598 46.1703 90.7007 45.8131 90.9452 45.3692L90.0692 44.8868C89.9083 45.1789 89.6892 45.4083 89.4062 45.5815L89.9282 46.4345ZM90.9466 45.3665C91.1926 44.9134 91.3112 44.4114 91.3112 43.872H90.3112C90.3112 44.2606 90.2271 44.596 90.0678 44.8895L90.9466 45.3665ZM91.3112 43.872C91.3112 43.3327 91.1926 42.8322 90.9452 42.3828L90.0692 42.8652C90.2271 43.1518 90.3112 43.4833 90.3112 43.872H91.3112ZM90.9466 42.3855C90.7021 41.935 90.3595 41.575 89.9235 41.3147L89.4109 42.1733C89.6895 42.3397 89.907 42.5664 90.0678 42.8625L90.9466 42.3855ZM89.9235 41.3147C89.48 41.0499 88.9788 40.924 88.4352 40.924V41.924C88.8196 41.924 89.1397 42.0114 89.4109 42.1733L89.9235 41.3147ZM88.4352 40.924C87.8916 40.924 87.3904 41.0499 86.9469 41.3147L87.4595 42.1733C87.7307 42.0114 88.0508 41.924 88.4352 41.924V40.924ZM86.9469 41.3147C86.5108 41.575 86.1683 41.935 85.9238 42.3855L86.8026 42.8625C86.9634 42.5664 87.1809 42.3397 87.4595 42.1733L86.9469 41.3147ZM85.9252 42.3828C85.6777 42.8322 85.5592 43.3327 85.5592 43.872H86.5592C86.5592 43.4833 86.6433 43.1518 86.8012 42.8652L85.9252 42.3828ZM85.5592 43.872C85.5592 44.4114 85.6777 44.9134 85.9238 45.3665L86.8026 44.8895C86.6433 44.596 86.5592 44.2606 86.5592 43.872H85.5592ZM85.9252 45.3692C86.1697 45.8131 86.5106 46.1703 86.9422 46.4345L87.4642 45.5815C87.1811 45.4083 86.9621 45.1789 86.8012 44.8868L85.9252 45.3692ZM86.9469 46.4373C87.3904 46.7021 87.8916 46.828 88.4352 46.828V45.828C88.0508 45.828 87.7307 45.7406 87.4595 45.5787L86.9469 46.4373ZM93.5944 44.248L93.2102 44.5681L93.2141 44.5727L93.5944 44.248ZM93.1144 40.872L93.4555 41.2375L93.4618 41.2316L93.4679 41.2256L93.1144 40.872ZM93.7064 40.872L93.3409 41.2132L93.3526 41.2258L93.3652 41.2375L93.7064 40.872ZM93.9704 43.344L93.4951 43.4996L93.4987 43.51L93.9704 43.344ZM94.4664 44.008L94.1868 44.4226L94.1912 44.4255L94.4664 44.008ZM96.2824 44.12L96.4344 44.5963V44.5963L96.2824 44.12ZM96.8664 43.792L97.2199 44.1456V44.1456L96.8664 43.792ZM97.2024 40.872L97.5435 41.2375L97.5498 41.2316L97.5559 41.2256L97.2024 40.872ZM97.7944 40.872L97.4288 41.2132L97.4406 41.2258L97.4532 41.2375L97.7944 40.872ZM97.7944 46.88L97.4408 46.5264L97.4347 46.5325L97.4288 46.5388L97.7944 46.88ZM97.0824 44.312H97.5824V43.0311L96.7146 43.9733L97.0824 44.312ZM96.3544 44.792L96.5327 45.2591L96.5372 45.2574L96.3544 44.792ZM95.3624 44.46C94.6973 44.46 94.2628 44.2608 93.9746 43.9233L93.2141 44.5727C93.7367 45.1846 94.4808 45.46 95.3624 45.46V44.46ZM93.9785 43.9279C93.6742 43.5627 93.4944 43.0376 93.4944 42.296H92.4944C92.4944 43.1971 92.7146 43.9733 93.2103 44.5681L93.9785 43.9279ZM93.4944 42.296V41.168H92.4944V42.296H93.4944ZM93.4944 41.168C93.4944 41.1614 93.4953 41.1711 93.4877 41.1899C93.4796 41.2098 93.4672 41.2267 93.4555 41.2375L92.7732 40.5065C92.5791 40.6876 92.4944 40.9253 92.4944 41.168H93.4944ZM93.4679 41.2256C93.4636 41.2299 93.4527 41.2387 93.4362 41.2454C93.4201 41.2519 93.4095 41.252 93.4104 41.252V40.252C93.1659 40.252 92.9384 40.3409 92.7608 40.5184L93.4679 41.2256ZM93.4104 41.252C93.417 41.252 93.4072 41.253 93.3885 41.2454C93.3685 41.2373 93.3517 41.2248 93.3409 41.2132L94.0719 40.5308C93.8907 40.3367 93.6531 40.252 93.4104 40.252V41.252ZM93.3652 41.2375C93.3536 41.2267 93.3411 41.2098 93.333 41.1899C93.3254 41.1711 93.3264 41.1614 93.3264 41.168H94.3264C94.3264 40.9253 94.2416 40.6876 94.0475 40.5065L93.3652 41.2375ZM93.3264 41.168V42.296H94.3264V41.168H93.3264ZM93.3264 42.296C93.3264 42.7386 93.3785 43.1431 93.4952 43.4995L94.4456 43.1885C94.3702 42.9583 94.3264 42.6641 94.3264 42.296H93.3264ZM93.4987 43.51C93.6318 43.8882 93.8591 44.2015 94.1868 44.4225L94.7459 43.5935C94.6149 43.5051 94.5116 43.3758 94.442 43.178L93.4987 43.51ZM94.1912 44.4255C94.5344 44.6516 94.9559 44.74 95.4104 44.74V43.74C95.0755 43.74 94.8677 43.6737 94.7415 43.5905L94.1912 44.4255ZM95.4104 44.74C95.78 44.74 96.1238 44.6954 96.4344 44.5963L96.1304 43.6437C95.9396 43.7046 95.7021 43.74 95.4104 43.74V44.74ZM96.4344 44.5963C96.7362 44.5 97.0089 44.3566 97.2199 44.1456L96.5128 43.4384C96.4465 43.5048 96.3298 43.58 96.1304 43.6437L96.4344 44.5963ZM97.2199 44.1456C97.4483 43.9172 97.5824 43.628 97.5824 43.296H96.5824C96.5824 43.3373 96.5724 43.3788 96.5128 43.4384L97.2199 44.1456ZM97.5824 43.296V41.168H96.5824V43.296H97.5824ZM97.5824 41.168C97.5824 41.1614 97.5833 41.1711 97.5757 41.1899C97.5676 41.2098 97.5552 41.2267 97.5435 41.2375L96.8612 40.5065C96.6671 40.6876 96.5824 40.9253 96.5824 41.168H97.5824ZM97.5559 41.2256C97.5516 41.2299 97.5407 41.2387 97.5242 41.2454C97.5081 41.2519 97.4975 41.252 97.4984 41.252V40.252C97.2539 40.252 97.0264 40.3409 96.8488 40.5184L97.5559 41.2256ZM97.4984 41.252C97.505 41.252 97.4952 41.253 97.4765 41.2454C97.4565 41.2373 97.4397 41.2248 97.4288 41.2132L98.1599 40.5308C97.9787 40.3367 97.7411 40.252 97.4984 40.252V41.252ZM97.4532 41.2375C97.4416 41.2267 97.4291 41.2098 97.421 41.1899C97.4134 41.1711 97.4144 41.1614 97.4144 41.168H98.4144C98.4144 40.9253 98.3296 40.6876 98.1355 40.5065L97.4532 41.2375ZM97.4144 41.168V46.584H98.4144V41.168H97.4144ZM97.4144 46.584C97.4144 46.5849 97.4145 46.5743 97.421 46.5581C97.4277 46.5416 97.4365 46.5308 97.4408 46.5264L98.1479 47.2336C98.3255 47.056 98.4144 46.8285 98.4144 46.584H97.4144ZM97.4288 46.5388C97.4397 46.5272 97.4565 46.5147 97.4765 46.5066C97.4952 46.499 97.505 46.5 97.4984 46.5V47.5C97.7411 47.5 97.9787 47.4153 98.1599 47.2212L97.4288 46.5388ZM97.4984 46.5C97.4975 46.5 97.5081 46.5001 97.5242 46.5066C97.5407 46.5133 97.5516 46.5221 97.5559 46.5264L96.8488 47.2336C97.0264 47.4111 97.2539 47.5 97.4984 47.5V46.5ZM97.5559 46.5264C97.5602 46.5308 97.569 46.5416 97.5757 46.5581C97.5823 46.5743 97.5824 46.5849 97.5824 46.584H96.5824C96.5824 46.8285 96.6712 47.056 96.8488 47.2336L97.5559 46.5264ZM97.5824 46.584V44.312H96.5824V46.584H97.5824ZM96.7146 43.9733C96.587 44.1118 96.4113 44.2324 96.1716 44.3266L96.5372 45.2574C96.8947 45.1169 97.2044 44.9175 97.4501 44.6507L96.7146 43.9733ZM96.176 44.3249C95.9485 44.4118 95.6797 44.46 95.3624 44.46V45.46C95.781 45.46 96.1736 45.3962 96.5327 45.2591L96.176 44.3249ZM99.9966 46.88L99.643 47.2336L99.9966 46.88ZM99.9966 40.872L100.338 41.2375L100.344 41.2316L100.35 41.2256L99.9966 40.872ZM100.589 40.872L100.223 41.2132L100.235 41.2258L100.247 41.2375L100.589 40.872ZM100.709 43.464H100.209V43.964H100.709V43.464ZM104.421 43.464V43.964H104.921V43.464H104.421ZM104.541 40.872L104.882 41.2375L104.888 41.2316L104.894 41.2256L104.541 40.872ZM105.133 40.872L104.767 41.2132L104.773 41.2195L104.779 41.2256L105.133 40.872ZM104.421 44.2H104.921V43.7H104.421V44.2ZM100.709 44.2V43.7H100.209V44.2H100.709ZM100.589 46.88L100.235 46.5264L100.229 46.5325L100.223 46.5388L100.589 46.88ZM100.293 46.5C100.292 46.5 100.302 46.5001 100.318 46.5066C100.335 46.5133 100.346 46.5221 100.35 46.5264L99.643 47.2336C99.8206 47.4111 100.048 47.5 100.293 47.5V46.5ZM100.35 46.5264C100.354 46.5308 100.363 46.5416 100.37 46.5581C100.376 46.5743 100.377 46.5849 100.377 46.584H99.3766C99.3766 46.8285 99.4654 47.056 99.643 47.2336L100.35 46.5264ZM100.377 46.584V41.168H99.3766V46.584H100.377ZM100.377 41.168C100.377 41.1614 100.378 41.1711 100.37 41.1899C100.362 41.2098 100.349 41.2267 100.338 41.2375L99.6554 40.5065C99.4613 40.6876 99.3766 40.9253 99.3766 41.168H100.377ZM100.35 41.2256C100.346 41.2299 100.335 41.2387 100.318 41.2454C100.302 41.2519 100.292 41.252 100.293 41.252V40.252C100.048 40.252 99.8206 40.3409 99.643 40.5184L100.35 41.2256ZM100.293 41.252C100.299 41.252 100.289 41.253 100.271 41.2454C100.251 41.2373 100.234 41.2248 100.223 41.2132L100.954 40.5308C100.773 40.3367 100.535 40.252 100.293 40.252V41.252ZM100.247 41.2375C100.236 41.2267 100.223 41.2098 100.215 41.1899C100.208 41.1711 100.209 41.1614 100.209 41.168H101.209C101.209 40.9253 101.124 40.6876 100.93 40.5065L100.247 41.2375ZM100.209 41.168V43.464H101.209V41.168H100.209ZM100.709 43.964H104.421V42.964H100.709V43.964ZM104.921 43.464V41.168H103.921V43.464H104.921ZM104.921 41.168C104.921 41.1614 104.922 41.1711 104.914 41.1899C104.906 41.2098 104.893 41.2267 104.882 41.2375L104.199 40.5065C104.005 40.6876 103.921 40.9253 103.921 41.168H104.921ZM104.894 41.2256C104.89 41.2299 104.879 41.2387 104.862 41.2454C104.846 41.2519 104.836 41.252 104.837 41.252V40.252C104.592 40.252 104.365 40.3409 104.187 40.5184L104.894 41.2256ZM104.837 41.252C104.843 41.252 104.833 41.253 104.815 41.2454C104.795 41.2373 104.778 41.2248 104.767 41.2132L105.498 40.5308C105.317 40.3367 105.079 40.252 104.837 40.252V41.252ZM104.779 41.2256C104.766 41.2128 104.755 41.196 104.749 41.1789C104.743 41.1633 104.745 41.1574 104.745 41.168H105.745C105.745 40.9359 105.67 40.7021 105.486 40.5184L104.779 41.2256ZM104.745 41.168V46.584H105.745V41.168H104.745ZM104.745 46.584C104.745 46.589 104.744 46.5823 104.749 46.5691C104.754 46.5553 104.762 46.5446 104.767 46.5388L105.498 47.2212C105.666 47.0415 105.745 46.818 105.745 46.584H104.745ZM104.767 46.5388C104.778 46.5272 104.795 46.5147 104.815 46.5066C104.833 46.499 104.843 46.5 104.837 46.5V47.5C105.079 47.5 105.317 47.4153 105.498 47.2212L104.767 46.5388ZM104.837 46.5C104.836 46.5 104.846 46.5001 104.862 46.5066C104.879 46.5133 104.89 46.5221 104.894 46.5264L104.187 47.2336C104.365 47.4111 104.592 47.5 104.837 47.5V46.5ZM104.894 46.5264C104.898 46.5308 104.907 46.5416 104.914 46.5581C104.92 46.5743 104.921 46.5849 104.921 46.584H103.921C103.921 46.8285 104.009 47.056 104.187 47.2336L104.894 46.5264ZM104.921 46.584V44.2H103.921V46.584H104.921ZM104.421 43.7H100.709V44.7H104.421V43.7ZM100.209 44.2V46.584H101.209V44.2H100.209ZM100.209 46.584C100.209 46.5849 100.209 46.5743 100.215 46.5581C100.222 46.5416 100.231 46.5308 100.235 46.5264L100.942 47.2336C101.12 47.056 101.209 46.8285 101.209 46.584H100.209ZM100.223 46.5388C100.234 46.5272 100.251 46.5147 100.271 46.5066C100.289 46.499 100.299 46.5 100.293 46.5V47.5C100.535 47.5 100.773 47.4153 100.954 47.2212L100.223 46.5388ZM108.805 46.848L108.615 47.3105L108.621 47.3127L108.805 46.848ZM107.797 46.184L107.437 46.5309L107.444 46.5376L107.797 46.184ZM107.149 45.168L106.684 45.3504L106.685 45.3526L107.149 45.168ZM107.149 42.584L106.685 42.3994V42.3994L107.149 42.584ZM107.797 41.576L107.44 41.2258L107.44 41.2258L107.797 41.576ZM108.805 40.912L108.99 41.3767L108.995 41.3745L108.805 40.912ZM111.373 40.912L111.181 41.3736L111.189 41.3767L111.373 40.912ZM112.381 41.576L112.024 41.9262L112.028 41.9296L112.381 41.576ZM113.037 42.584L113.502 42.3994V42.3994L113.037 42.584ZM113.037 45.168L113.502 45.3526L113.503 45.3504L113.037 45.168ZM112.381 46.184L112.735 46.5376L112.738 46.5342L112.381 46.184ZM111.373 46.848L111.56 47.3118L111.563 47.3105L111.373 46.848ZM111.325 46.008L111.582 46.4373L111.586 46.4345L111.325 46.008ZM112.165 45.128L112.603 45.3692L112.605 45.3665L112.165 45.128ZM112.165 42.624L111.726 42.8625L111.727 42.8652L112.165 42.624ZM111.325 41.744L111.069 42.1733V42.1733L111.325 41.744ZM108.861 41.744L109.118 42.1733L108.861 41.744ZM108.021 42.624L108.459 42.8652L108.461 42.8625L108.021 42.624ZM108.021 45.128L107.582 45.3665L107.583 45.3692L108.021 45.128ZM108.861 46.008L108.6 46.4345L108.605 46.4373L108.861 46.008ZM110.093 46.58C109.68 46.58 109.314 46.512 108.99 46.3833L108.621 47.3127C109.075 47.4933 109.568 47.58 110.093 47.58V46.58ZM108.995 46.3855C108.664 46.2493 108.384 46.0639 108.151 45.8304L107.444 46.5376C107.776 46.8694 108.168 47.1267 108.615 47.3105L108.995 46.3855ZM108.157 45.8372C107.927 45.5982 107.746 45.3153 107.614 44.9834L106.685 45.3526C106.862 45.7993 107.113 46.1938 107.437 46.5308L108.157 45.8372ZM107.615 44.9856C107.485 44.6549 107.417 44.2856 107.417 43.872H106.417C106.417 44.3971 106.504 44.8917 106.684 45.3504L107.615 44.9856ZM107.417 43.872C107.417 43.4583 107.485 43.0925 107.614 42.7686L106.685 42.3994C106.504 42.8541 106.417 43.347 106.417 43.872H107.417ZM107.614 42.7686C107.746 42.4374 107.926 42.1586 108.154 41.9262L107.44 41.2258C107.114 41.5587 106.862 41.9519 106.685 42.3994L107.614 42.7686ZM108.154 41.9262C108.386 41.6899 108.663 41.5066 108.99 41.3767L108.621 40.4473C108.169 40.6267 107.774 40.8861 107.44 41.2258L108.154 41.9262ZM108.995 41.3745C109.318 41.2419 109.682 41.172 110.093 41.172V40.172C109.566 40.172 109.071 40.2621 108.615 40.4495L108.995 41.3745ZM110.093 41.172C110.505 41.172 110.865 41.242 111.181 41.3735L111.566 40.4505C111.113 40.262 110.62 40.172 110.093 40.172V41.172ZM111.189 41.3767C111.516 41.5066 111.792 41.6899 112.024 41.9262L112.738 41.2258C112.405 40.8861 112.009 40.6267 111.558 40.4473L111.189 41.3767ZM112.028 41.9296C112.26 42.1618 112.442 42.4395 112.573 42.7686L113.502 42.3994C113.323 41.9499 113.068 41.5556 112.735 41.2224L112.028 41.9296ZM112.573 42.7686C112.701 43.0925 112.769 43.4583 112.769 43.872H113.769C113.769 43.347 113.683 42.8541 113.502 42.3994L112.573 42.7686ZM112.769 43.872C112.769 44.2856 112.701 44.6549 112.572 44.9856L113.503 45.3504C113.683 44.8917 113.769 44.3971 113.769 43.872H112.769ZM112.573 44.9834C112.442 45.3133 112.259 45.5951 112.024 45.8338L112.738 46.5342C113.069 46.1969 113.324 45.8014 113.502 45.3526L112.573 44.9834ZM112.028 45.8304C111.794 46.0639 111.515 46.2493 111.183 46.3855L111.563 47.3105C112.011 47.1267 112.403 46.8694 112.735 46.5376L112.028 45.8304ZM111.187 46.3842C110.869 46.512 110.507 46.58 110.093 46.58V47.58C110.618 47.58 111.109 47.4934 111.56 47.3118L111.187 46.3842ZM110.093 46.828C110.637 46.828 111.138 46.7021 111.582 46.4373L111.069 45.5787C110.798 45.7406 110.478 45.828 110.093 45.828V46.828ZM111.586 46.4345C112.018 46.1703 112.359 45.8131 112.603 45.3692L111.727 44.8868C111.566 45.1789 111.347 45.4083 111.064 45.5815L111.586 46.4345ZM112.605 45.3665C112.851 44.9134 112.969 44.4114 112.969 43.872H111.969C111.969 44.2606 111.885 44.596 111.726 44.8895L112.605 45.3665ZM112.969 43.872C112.969 43.3327 112.851 42.8322 112.603 42.3828L111.727 42.8652C111.885 43.1518 111.969 43.4833 111.969 43.872H112.969ZM112.605 42.3855C112.36 41.935 112.018 41.575 111.582 41.3147L111.069 42.1733C111.348 42.3397 111.565 42.5664 111.726 42.8625L112.605 42.3855ZM111.582 41.3147C111.138 41.0499 110.637 40.924 110.093 40.924V41.924C110.478 41.924 110.798 42.0114 111.069 42.1733L111.582 41.3147ZM110.093 40.924C109.55 40.924 109.048 41.0499 108.605 41.3147L109.118 42.1733C109.389 42.0114 109.709 41.924 110.093 41.924V40.924ZM108.605 41.3147C108.169 41.575 107.826 41.935 107.582 42.3855L108.461 42.8625C108.622 42.5664 108.839 42.3397 109.118 42.1733L108.605 41.3147ZM107.583 42.3828C107.336 42.8322 107.217 43.3327 107.217 43.872H108.217C108.217 43.4833 108.301 43.1518 108.459 42.8652L107.583 42.3828ZM107.217 43.872C107.217 44.4114 107.336 44.9134 107.582 45.3665L108.461 44.8895C108.301 44.596 108.217 44.2606 108.217 43.872H107.217ZM107.583 45.3692C107.828 45.8131 108.169 46.1703 108.6 46.4345L109.122 45.5815C108.839 45.4083 108.62 45.1789 108.459 44.8868L107.583 45.3692ZM108.605 46.4373C109.048 46.7021 109.55 46.828 110.093 46.828V45.828C109.709 45.828 109.389 45.7406 109.118 45.5787L108.605 46.4373Z" fill="#F13535"/>
</svg>
