<svg width="51" height="30" viewBox="0 0 51 30" fill="none" xmlns="http://www.w3.org/2000/svg">
<path d="M24.2897 30C31.2337 30 28.7577 25.604 29.2937 24.34C29.2857 23.396 29.2777 22.488 29.3097 21.936C29.7497 22.06 30.7877 22.586 32.9316 24.67C36.2416 28.01 37.0876 30 39.7616 30H44.6835C46.2435 30 47.0555 29.354 47.4615 28.812C47.8535 28.288 48.2375 27.368 47.8175 25.936C46.7195 22.488 40.3156 16.534 39.9176 15.906C39.9776 15.79 40.0736 15.636 40.1236 15.556H40.1196C41.3835 13.886 46.2075 6.658 46.9175 3.766C46.9195 3.762 46.9215 3.756 46.9215 3.75C47.3055 2.43 46.9535 1.574 46.5895 1.09C46.0415 0.366 45.1695 0 43.9915 0H39.0696C37.4216 0 36.1716 0.83 35.5396 2.344C34.4816 5.034 31.5097 10.566 29.2817 12.524C29.2137 9.75 29.2597 7.632 29.2957 6.058C29.3677 2.988 29.5997 0 26.4137 0H18.6778C16.6818 0 14.7718 2.18 16.8398 4.768C18.6478 7.036 17.4898 8.3 17.8798 14.592C16.3598 12.962 13.6559 8.56 11.7439 2.934C11.2079 1.412 10.3959 0.00199986 8.10991 0.00199986H3.18796C1.19199 0.00199986 0 1.09 0 2.912C0 7.004 9.0579 30 24.2897 30ZM8.10991 3.002C8.54391 3.002 8.5879 3.002 8.9099 3.916C10.8679 9.682 15.2598 18.214 18.4678 18.214C20.8778 18.214 20.8778 15.744 20.8778 14.814L20.8758 7.41C20.7438 4.96 19.8518 3.74 19.2658 3L26.2817 3.008C26.2857 3.042 26.2417 11.198 26.3017 13.174C26.3017 15.98 28.5297 17.588 32.0076 14.068C35.6776 9.926 38.2156 3.734 38.3176 3.482C38.4676 3.122 38.5976 3 39.0696 3H43.9915H44.0115C44.0095 3.006 44.0095 3.012 44.0075 3.018C43.5575 5.118 39.1156 11.81 37.6296 13.888C37.6056 13.92 37.5836 13.954 37.5616 13.988C36.9076 15.056 36.3756 16.236 37.6516 17.896H37.6536C37.7696 18.036 38.0716 18.364 38.5116 18.82C39.8796 20.232 44.5715 25.06 44.9875 26.98C44.7115 27.024 44.4115 26.992 39.7616 27.002C38.7716 27.002 37.9976 25.522 35.0436 22.542C32.3876 19.958 30.6637 18.902 29.0937 18.902C26.0457 18.902 26.2677 21.376 26.2957 24.368C26.3057 27.612 26.2857 26.586 26.3077 26.79C26.1297 26.86 25.6197 27 24.2897 27C11.5999 27 3.33596 6.858 3.01797 3.008C3.12797 2.998 4.64195 3.004 8.10991 3.002Z" fill="#F13535"/>
</svg>
