<svg width="36" height="34" viewBox="0 0 36 34" fill="none" xmlns="http://www.w3.org/2000/svg">
<g clip-path="url(#clip0)">
<path d="M26.5098 19.5369C26.4404 19.5051 23.8447 18.2845 23.3834 18.126C23.1951 18.0614 22.9934 17.9984 22.7788 17.9984C22.4283 17.9984 22.1339 18.1652 21.9045 18.4928C21.6452 18.8609 20.8603 19.737 20.6178 19.9988C20.5861 20.0333 20.5428 20.0746 20.5169 20.0746C20.4937 20.0746 20.092 19.9166 19.9704 19.8662C17.1859 18.7112 15.0723 15.9337 14.7825 15.4653C14.7411 15.398 14.7394 15.3674 14.739 15.3674C14.7492 15.3317 14.8429 15.2421 14.8912 15.1958C15.0326 15.0623 15.1857 14.8862 15.3339 14.7159C15.4041 14.6352 15.4744 14.5544 15.5434 14.4782C15.7584 14.2393 15.8541 14.0539 15.9651 13.839L16.0233 13.7274C16.2942 13.2134 16.0628 12.7795 15.988 12.6394C15.9266 12.5222 14.8306 9.99627 14.7141 9.73089C14.4339 9.09052 14.0636 8.79236 13.549 8.79236C13.5013 8.79236 13.549 8.79236 13.3488 8.80042C13.105 8.81024 11.7773 8.97715 11.1903 9.33051C10.5678 9.70528 9.51465 10.8999 9.51465 13.0009C9.51465 14.8917 10.7712 16.677 11.3108 17.3561C11.3242 17.3732 11.3488 17.4079 11.3845 17.4578C13.4507 20.3392 16.0264 22.4746 18.6375 23.4706C21.1513 24.4295 22.3416 24.5403 23.0183 24.5403C23.0185 24.5403 23.0185 24.5403 23.0185 24.5403C23.3028 24.5403 23.5305 24.519 23.7313 24.5001L23.8587 24.4885C24.7271 24.415 26.6354 23.4708 27.0695 22.3188C27.4114 21.4115 27.5016 20.4202 27.2741 20.0605C27.1183 19.8159 26.8497 19.6928 26.5098 19.5369Z" fill="#F13535"/>
<path d="M18.2825 0C8.6395 0 0.794285 7.43518 0.794285 16.5742C0.794285 19.5301 1.62269 22.4236 3.19198 24.9559L0.188299 33.4167C0.132348 33.5744 0.173964 33.7489 0.296156 33.8676C0.38436 33.9536 0.504008 34 0.626199 34C0.673018 34 0.720184 33.9933 0.766193 33.9792L10.0051 31.1758C12.5333 32.4657 15.3908 33.1466 18.2827 33.1466C27.9248 33.1467 35.7692 25.7123 35.7692 16.5742C35.7692 7.43518 27.9248 0 18.2825 0ZM18.2825 29.6941C15.5614 29.6941 12.9258 28.9438 10.6602 27.5242C10.584 27.4764 10.4956 27.4519 10.4066 27.4519C10.3595 27.4519 10.3124 27.4588 10.2665 27.4727L5.63835 28.8775L7.13239 24.6684C7.18071 24.5322 7.15655 24.382 7.06754 24.2658C5.3423 22.0148 4.43031 19.3552 4.43031 16.5742C4.43031 9.33896 10.6444 3.45255 18.2824 3.45255C25.9196 3.45255 32.1329 9.33896 32.1329 16.5742C32.1331 23.8086 25.9198 29.6941 18.2825 29.6941Z" fill="#F13535"/>
</g>
<defs>
<clipPath id="clip0">
<rect width="35.6054" height="34" fill="white" transform="translate(0.163574)"/>
</clipPath>
</defs>
</svg>
